<?xml version="1.0" encoding="UTF-8" standalone="no"?>
<svg
   xmlns:dc="http://purl.org/dc/elements/1.1/"
   xmlns:cc="http://creativecommons.org/ns#"
   xmlns:rdf="http://www.w3.org/1999/02/22-rdf-syntax-ns#"
   xmlns:svg="http://www.w3.org/2000/svg"
   xmlns="http://www.w3.org/2000/svg"
   xmlns:sodipodi="http://sodipodi.sourceforge.net/DTD/sodipodi-0.dtd"
   xmlns:inkscape="http://www.inkscape.org/namespaces/inkscape"
   inkscape:version="1.0 (4035a4fb49, 2020-05-01)"
   sodipodi:docname="Alfa_Romeo_MiTo.svg"
   version="1.1"
   id="svg2"
   xml:space="preserve"
   width="500"
   height="173.14168"
   viewBox="0 0 499.99999 173.14168"><sodipodi:namedview
     inkscape:current-layer="svg2"
     inkscape:window-maximized="1"
     inkscape:window-y="-11"
     inkscape:window-x="-11"
     inkscape:cy="65.018659"
     inkscape:cx="191.42164"
     inkscape:zoom="1.9775989"
     fit-margin-bottom="0"
     fit-margin-right="0"
     fit-margin-left="0"
     fit-margin-top="0"
     showgrid="false"
     id="namedview17"
     inkscape:window-height="986"
     inkscape:window-width="1920"
     inkscape:pageshadow="2"
     inkscape:pageopacity="0"
     guidetolerance="10"
     gridtolerance="10"
     objecttolerance="10"
     borderopacity="1"
     bordercolor="#666666"
     pagecolor="#ffffff" /><metadata
     id="metadata8"><rdf:RDF><cc:Work
         rdf:about=""><dc:format>image/svg+xml</dc:format><dc:type
           rdf:resource="http://purl.org/dc/dcmitype/StillImage" /><dc:title></dc:title></cc:Work></rdf:RDF></metadata><defs
     id="defs6"><clipPath
       clipPathUnits="userSpaceOnUse"
       id="clipPath18"><path
         d="M 0,595.276 H 841.89 V 0 H 0 Z"
         id="path16" /></clipPath></defs><path
     d="M 0,1.0705 V 171.23296 H 21.4489 V 31.13248 c 7.71525,8.75066 76.97968,87.32666 76.97968,87.32666 L 129.35487,85.32447 V 52.71191 c 0,0 -28.14287,29.96673 -30.92629,33.12585 C 94.90962,81.84431 23.69257,1.0705 23.69257,1.0705 Z"
     style="fill:#232323;fill-opacity:1;fill-rule:nonzero;stroke:none;stroke-width:1.76389"
     id="path22" /><path
     d="m 421.35874,20.76275 2.08138,0.32809 c 32.49439,5.12938 56.07231,32.48909 56.07231,65.06284 0,36.66244 -29.82739,66.49336 -66.49161,66.49336 -30.61231,0 -57.67391,-22.03451 -64.35022,-52.39811 l -0.42687,-1.93676 h -20.67102 l 0.50271,2.89279 c 7.27251,41.67895 42.99834,71.93672 84.9454,71.93672 C 460.981,173.14168 500,134.11561 500,86.15368 500,42.8396 467.38215,5.95842 424.14215,0.35807 L 421.35874,0 Z"
     style="fill:#232323;fill-opacity:1;fill-rule:nonzero;stroke:none;stroke-width:1.76389"
     id="path26" /><path
     d="m 176.0558,1.0705 v 21.44538 h 76.09068 v 80.33635 h 21.44185 V 22.51588 h 76.0995 V 1.0705 Z"
     style="fill:#232323;fill-opacity:1;fill-rule:nonzero;stroke:none;stroke-width:1.76389"
     id="path30" /><path
     d="m 176.05573,69.33215 v 101.90081 h 21.43799 V 69.33215 Z"
     style="fill:#232323;fill-opacity:1;fill-rule:nonzero;stroke:none;stroke-width:1.76389"
     id="path32" /></svg>

