<svg xmlns="http://www.w3.org/2000/svg" width="64" height="64" viewBox="0 0 64 64" role="img" aria-label="it flag">
  <defs>
    <clipPath id="clip-it"><rect x="4" y="4" width="56" height="56" rx="14" ry="14"/></clipPath>
    <clipPath id="window-it"><rect x="8" y="8" width="48" height="48" rx="11" ry="11"/></clipPath>
    <radialGradient id="gloss-it" cx="28%" cy="18%" r="72%">
      <stop offset="0%" stop-color="#fff" stop-opacity=".50"/>
      <stop offset="42%" stop-color="#fff" stop-opacity=".16"/>
      <stop offset="100%" stop-color="#fff" stop-opacity="0"/>
    </radialGradient>
    <linearGradient id="shade-it" x1="0" y1="0" x2="0" y2="1">
      <stop offset="0%" stop-color="#000" stop-opacity="0"/>
      <stop offset="74%" stop-color="#000" stop-opacity=".02"/>
      <stop offset="100%" stop-color="#000" stop-opacity=".24"/>
    </linearGradient>
  </defs>
  <rect x="4" y="4" width="56" height="56" rx="14" ry="14" fill="#dfe3ea"/>
  <g clip-path="url(#clip-it)">
    <g clip-path="url(#window-it)">
    <svg x="8" y="8" width="48" height="48" viewBox="0 0 640 480" preserveAspectRatio="xMidYMid slice">

  <g fill-rule="evenodd" stroke-width="1pt">
    <path fill="#fff" d="M0 0h640v480H0z"/>
    <path fill="#009246" d="M0 0h213.3v480H0z"/>
    <path fill="#ce2b37" d="M426.7 0H640v480H426.7z"/>
  </g>

    </svg>
    </g>
    <rect x="8.5" y="8.5" width="47" height="47" rx="10.5" ry="10.5" fill="none" stroke="#ffffff" stroke-opacity=".34" stroke-width="1"/>
    <rect x="8.5" y="8.5" width="47" height="47" rx="10.5" ry="10.5" fill="none" stroke="#000000" stroke-opacity=".14" stroke-width=".9"/>
    <rect x="4" y="4" width="56" height="56" fill="url(#gloss-it)"/>
    <rect x="4" y="4" width="56" height="56" fill="url(#shade-it)"/>
  </g>
  <rect x="4.5" y="4.5" width="55" height="55" rx="13.5" ry="13.5" fill="none" stroke="#ffffff" stroke-opacity=".46" stroke-width="1"/>
  <rect x="4.5" y="4.5" width="55" height="55" rx="13.5" ry="13.5" fill="none" stroke="#000000" stroke-opacity=".16" stroke-width="1"/>
</svg>
