<svg xmlns="http://www.w3.org/2000/svg" width="64" height="64" viewBox="0 0 64 64" role="img" aria-label="jp flag">
  <defs>
    <clipPath id="clip-jp"><rect x="4" y="4" width="56" height="56" rx="14" ry="14"/></clipPath>
    <clipPath id="window-jp"><rect x="8" y="8" width="48" height="48" rx="11" ry="11"/></clipPath>
    <radialGradient id="gloss-jp" cx="28%" cy="18%" r="72%">
      <stop offset="0%" stop-color="#fff" stop-opacity=".50"/>
      <stop offset="42%" stop-color="#fff" stop-opacity=".16"/>
      <stop offset="100%" stop-color="#fff" stop-opacity="0"/>
    </radialGradient>
    <linearGradient id="shade-jp" x1="0" y1="0" x2="0" y2="1">
      <stop offset="0%" stop-color="#000" stop-opacity="0"/>
      <stop offset="74%" stop-color="#000" stop-opacity=".02"/>
      <stop offset="100%" stop-color="#000" stop-opacity=".24"/>
    </linearGradient>
  </defs>
  <rect x="4" y="4" width="56" height="56" rx="14" ry="14" fill="#dfe3ea"/>
  <g clip-path="url(#clip-jp)">
    <g clip-path="url(#window-jp)">
    <svg x="8" y="8" width="48" height="48" viewBox="0 0 640 480" preserveAspectRatio="xMidYMid slice">

  <defs>
    <clipPath id="jp-a">
      <path fill-opacity=".7" d="M-88 32h640v480H-88z"/>
    </clipPath>
  </defs>
  <g fill-rule="evenodd" stroke-width="1pt" clip-path="url(#jp-a)" transform="translate(88 -32)">
    <path fill="#fff" d="M-128 32h720v480h-720z"/>
    <circle cx="523.1" cy="344.1" r="194.9" fill="#bc002d" transform="translate(-168.4 8.6)scale(.76554)"/>
  </g>

    </svg>
    </g>
    <rect x="8.5" y="8.5" width="47" height="47" rx="10.5" ry="10.5" fill="none" stroke="#ffffff" stroke-opacity=".34" stroke-width="1"/>
    <rect x="8.5" y="8.5" width="47" height="47" rx="10.5" ry="10.5" fill="none" stroke="#000000" stroke-opacity=".14" stroke-width=".9"/>
    <rect x="4" y="4" width="56" height="56" fill="url(#gloss-jp)"/>
    <rect x="4" y="4" width="56" height="56" fill="url(#shade-jp)"/>
  </g>
  <rect x="4.5" y="4.5" width="55" height="55" rx="13.5" ry="13.5" fill="none" stroke="#ffffff" stroke-opacity=".46" stroke-width="1"/>
  <rect x="4.5" y="4.5" width="55" height="55" rx="13.5" ry="13.5" fill="none" stroke="#000000" stroke-opacity=".16" stroke-width="1"/>
</svg>
