<svg xmlns="http://www.w3.org/2000/svg" width="64" height="64" viewBox="0 0 64 64" role="img" aria-label="us flag">
  <defs>
    <clipPath id="clip-us"><rect x="4" y="4" width="56" height="56" rx="14" ry="14"/></clipPath>
    <clipPath id="window-us"><rect x="8" y="8" width="48" height="48" rx="11" ry="11"/></clipPath>
    <radialGradient id="gloss-us" cx="28%" cy="18%" r="72%">
      <stop offset="0%" stop-color="#fff" stop-opacity=".50"/>
      <stop offset="42%" stop-color="#fff" stop-opacity=".16"/>
      <stop offset="100%" stop-color="#fff" stop-opacity="0"/>
    </radialGradient>
    <linearGradient id="shade-us" x1="0" y1="0" x2="0" y2="1">
      <stop offset="0%" stop-color="#000" stop-opacity="0"/>
      <stop offset="74%" stop-color="#000" stop-opacity=".02"/>
      <stop offset="100%" stop-color="#000" stop-opacity=".24"/>
    </linearGradient>
  </defs>
  <rect x="4" y="4" width="56" height="56" rx="14" ry="14" fill="#dfe3ea"/>
  <g clip-path="url(#clip-us)">
    <g clip-path="url(#window-us)">
    <svg x="8" y="8" width="48" height="48" viewBox="0 0 640 480" preserveAspectRatio="xMidYMid slice">

  <path fill="#bd3d44" d="M0 0h640v480H0"/>
  <path stroke="#fff" stroke-width="37" d="M0 55.3h640M0 129h640M0 203h640M0 277h640M0 351h640M0 425h640"/>
  <path fill="#192f5d" d="M0 0h364.8v258.5H0"/>
  <marker id="us-a" markerHeight="30" markerWidth="30">
    <path fill="#fff" d="m14 0 9 27L0 10h28L5 27z"/>
  </marker>
  <path fill="none" marker-mid="url(#us-a)" d="m0 0 16 11h61 61 61 61 60L47 37h61 61 60 61L16 63h61 61 61 61 60L47 89h61 61 60 61L16 115h61 61 61 61 60L47 141h61 61 60 61L16 166h61 61 61 61 60L47 192h61 61 60 61L16 218h61 61 61 61 60z"/>

    </svg>
    </g>
    <rect x="8.5" y="8.5" width="47" height="47" rx="10.5" ry="10.5" fill="none" stroke="#ffffff" stroke-opacity=".34" stroke-width="1"/>
    <rect x="8.5" y="8.5" width="47" height="47" rx="10.5" ry="10.5" fill="none" stroke="#000000" stroke-opacity=".14" stroke-width=".9"/>
    <rect x="4" y="4" width="56" height="56" fill="url(#gloss-us)"/>
    <rect x="4" y="4" width="56" height="56" fill="url(#shade-us)"/>
  </g>
  <rect x="4.5" y="4.5" width="55" height="55" rx="13.5" ry="13.5" fill="none" stroke="#ffffff" stroke-opacity=".46" stroke-width="1"/>
  <rect x="4.5" y="4.5" width="55" height="55" rx="13.5" ry="13.5" fill="none" stroke="#000000" stroke-opacity=".16" stroke-width="1"/>
</svg>
