<svg xmlns="http://www.w3.org/2000/svg" width="150" height="37" fill="none" viewBox="0 0 150 37"><g fill="#FFFFFF" clip-path="url(#a)"><path d="M0 .66C0 .48.06.36.179.24A.64.64 0 0 1 .596.06h22.756c.715 0 1.25.3 1.727.841l3.872 5.105c.12.18.18.36.06.481-.06.18-.238.24-.417.24H16.918V36.34c0 .42-.238.661-.655.661h-5.421c-.417 0-.655-.24-.655-.66V6.786H.655a.54.54 0 0 1-.417-.18C.06 6.427 0 6.307 0 6.127zM67.018 5.946 70.89.841C71.366.3 71.902 0 72.617 0h7.268c.417 0 .655.24.655.66v35.62c0 .48-.238.66-.655.66h-5.421c-.417 0-.655-.24-.655-.66V6.726h-6.494c-.178 0-.297-.06-.417-.24 0-.18 0-.36.12-.54M88.106 36.34V.66c0-.18.059-.3.178-.42a.64.64 0 0 1 .417-.18h14.714c.715 0 1.311.3 1.728.841l3.872 5.045q.178.27 0 .541c-.06.18-.238.24-.417.24h-13.88v23.486h13.642L98.292 17.058c-.119-.18-.179-.36-.06-.54.12-.18.239-.24.418-.24h6.791c.715 0 1.31.3 1.727.9l7.625 10.031c.298.36.477.781.477 1.322v7.748c0 .18-.06.36-.179.48s-.298.241-.417.241H88.761c-.179 0-.298-.06-.417-.24-.179-.06-.238-.24-.238-.42M123.432 0h25.913c.179 0 .298.06.417.24.119.12.179.3.179.48v7.69c0 .48-.179.96-.477 1.38l-6.672 8.77 6.732 8.77c.298.36.476.78.476 1.321v7.688c0 .18-.059.36-.178.48-.12.12-.298.241-.417.241h-25.914c-.178 0-.298-.06-.417-.24a.69.69 0 0 1-.178-.48V28.65c0-.54.178-.961.476-1.322l6.672-8.769-6.731-8.77c-.298-.42-.477-.9-.477-1.38V.66c0-.18.06-.36.179-.48a.54.54 0 0 1 .417-.18m6.255 6.787 6.731 8.77 6.732-8.83h-13.463zm13.463 23.546-6.732-8.89-6.731 8.89zM60.763 23.546c-.357-1.202-.774-2.223-1.37-3.184-1.013-1.742-2.323-3.183-3.932-4.265q-1.787-1.26-3.574-1.802c-.536-.18-1.072-.3-1.608-.42l9.77-6.607c.297-.18.357-.66.237-1.021-.119-.18-.297-.36-.536-.42h-8.697c-.298 0-.536.12-.655.24-.417.24-.775.48-1.192.78l-8.935 5.947V5.406c0-.12 0-.3-.06-.48V.78c0-.36-.298-.66-.655-.72H34.73c-.357 0-.595.12-.714.24-.239.24-.239.6-.239.72V27.45c0 1.681.239 3.183.775 4.625.655 1.802 1.608 3.303 2.978 4.505.298.24.596.36 1.013.36h6.136c.357 0 .596-.3.655-.6.06-.361-.119-.661-.476-.782-3.098-1.2-4.945-3.303-5.6-6.306-.715-3.124.06-5.827 2.323-8.05a8.17 8.17 0 0 1 6.255-2.402c2.383.12 4.528 1.202 6.076 3.064 1.668 1.982 2.324 4.264 1.907 6.727-.537 3.363-2.502 5.706-5.838 6.967-.298.12-.477.42-.417.781.06.3.297.6.655.661h6.314c.298 0 .596-.12.834-.3.954-.841 1.788-1.862 2.383-3.064.715-1.381 1.132-2.883 1.31-4.444.358-2.043.24-3.905-.297-5.646"/><path fill="#F2FA5A" d="M51.232 21.503c.774.48 1.37 1.081 1.906 1.802.238.36.238.36-.12.66-.535.421-1.131.902-1.667 1.322-.12.06-.12.18-.06.24.06.18.179.361.238.541.06.06.12.12.18.12.774-.12 1.548-.18 2.382-.3.12 0 .179 0 .238.12.12.66.179 1.262.12 1.922-.06.24-.06.48-.12.781 0 .18-.06.24-.298.24l-2.323-.36c-.119 0-.179 0-.238.12-.06.18-.12.36-.238.54 0 .12 0 .18.178.3.656.482 1.31 1.022 1.966 1.503l.06.06c-.239.3-.417.6-.715.9-.417.421-.834.781-1.31 1.142-.12.06-.18.12-.239-.06a42 42 0 0 1-1.49-1.922l-.118-.12c-.239.12-.477.24-.656.3-.178.06-.178.12-.178.3.119.781.178 1.502.298 2.283 0 .18 0 .24-.239.3-.715.18-1.49.12-2.204.06-.12 0-.298-.06-.417-.06-.12 0-.12-.12-.12-.24.06-.48.12-.901.18-1.382.06-.36.119-.78.178-1.141-.297-.12-.536-.24-.893-.36-.179.24-.417.54-.596.78-.298.42-.655.841-.953 1.262-.06.12-.12.12-.238.06a7.3 7.3 0 0 1-1.907-1.922c0-.06-.06-.06-.06-.12q1.073-.81 2.145-1.622c-.119-.24-.238-.48-.298-.72-.06-.121-.119-.121-.238-.121l-2.323.36c-.179 0-.238 0-.238-.18-.18-.78-.12-1.561-.06-2.342 0-.12.06-.3.06-.42 0-.06.119-.12.178-.12.656.06 1.251.18 1.907.24.178 0 .357.06.536.06.06 0 .119-.06.178-.12.06-.18.12-.361.239-.541.06-.18.06-.24-.06-.3-.595-.481-1.25-.962-1.846-1.442-.12-.06-.12-.12-.06-.24a7.7 7.7 0 0 1 1.966-1.983s.06 0 .119-.06c.357.48.774 1.021 1.132 1.502l.357.54c.06.12.179.12.238.06.18-.06.358-.18.596-.24.12-.06.12-.06.12-.24-.12-.78-.239-1.562-.358-2.402 0-.12 0-.18.179-.24.655-.12 1.37-.18 2.085-.06.178.06.417.06.595.06.12 0 .179.06.179.24-.12.78-.179 1.501-.298 2.282 0 .18 0 .3.179.3.179.06.298.12.476.18.12.06.18.06.298-.06.477-.66.953-1.26 1.43-1.922 0-.06.06-.06.06-.12m-3.694 7.929c1.073.06 2.026-.901 2.026-2.042a2.055 2.055 0 0 0-2.026-2.043c-1.132 0-2.085.901-2.085 2.043.06 1.08 1.013 2.042 2.085 2.042"/></g><defs><clipPath id="a"><path fill="#fff" d="M0 0h150v37H0z"/></clipPath></defs></svg>