<?xml version="1.0" encoding="utf-8"?>
<!-- Generator: Adobe Illustrator 27.5.0, SVG Export Plug-In . SVG Version: 6.00 Build 0)  -->
<svg version="1.1" id="Layer_1" xmlns="http://www.w3.org/2000/svg" xmlns:xlink="http://www.w3.org/1999/xlink" x="0px" y="0px"
	 viewBox="0 0 3629.516 2000" style="enable-background:new 0 0 3629.516 2000;" xml:space="preserve">
<g>
	<rect style="fill:#EAFCFC;" width="3629.516" height="1750.493"/>
	<path style="opacity:0.6;fill:#9BC1F9;" d="M3629.516,317.711h-34.11l34.11-37.689v-26.18l-53.657,59.288l-107.3-118.557
		l107.3-118.558l53.657,59.288v-26.18l-30.646-33.862h30.646V0H0.241v75.26h23.584l107.981,119.312L20.36,317.711H0.517v18.513
		h216.762l132.21,228.996V2000h108.629V549.11l122.91-212.887h1245.217h150.369l132.211,228.996V2000h108.629V549.11l122.91-212.887
		h57.662h1231.488V317.711z M3552.848,75.26l-96.135,106.222L3360.578,75.26H3552.848z M3308.638,75.26l-96.136,106.222
		L3116.367,75.26H3308.638z M3070.346,75.26l-96.136,106.222L2878.075,75.26H3070.346z M2832.053,75.26l-96.135,106.222
		L2639.783,75.26H2832.053z M2593.762,75.26l-96.136,106.222L2401.491,75.26H2593.762z M2355.47,75.26l-96.136,106.222
		L2163.199,75.26H2355.47z M2117.178,75.26l-96.136,106.222L1924.907,75.26H2117.178z M1868.656,75.26l-79.328,106.222L1710,75.26
		H1868.656z M1669.541,75.26l-96.135,106.222L1477.271,75.26H1669.541z M1431.249,75.26l-96.136,106.222L1238.979,75.26H1431.249z
		 M1192.957,75.26l-96.135,106.222L1000.687,75.26H1192.957z M954.665,75.26l-96.135,106.222L762.394,75.26H954.665z M716.373,75.26
		l-96.136,106.222L524.102,75.26H716.373z M608.391,194.572L501.091,313.129L393.792,194.572L501.092,76.014L608.391,194.572z
		 M478.081,75.26l-96.136,106.222L285.81,75.26H478.081z M370.098,194.572L262.799,313.129L155.5,194.572L262.8,76.014
		L370.098,194.572z M47.519,75.26h192.27l-96.135,106.222L47.519,75.26z M44.055,317.711l99.599-110.049l99.599,110.049H44.055z
		 M349.49,504.976l-97.429-168.752h97.429V504.976z M282.347,317.711l99.598-110.049l99.599,110.049H282.347z M458.119,488.867
		V336.224h88.129L458.119,488.867z M520.639,317.711l99.599-110.049l99.599,110.049H520.639z M632.084,194.572L739.383,76.014
		l107.299,118.558L739.383,313.129L632.084,194.572z M758.931,317.711l99.599-110.049l99.599,110.049H758.931z M870.376,194.572
		L977.675,76.014l107.299,118.558L977.675,313.129L870.376,194.572z M997.222,317.711l99.599-110.049l99.599,110.049H997.222z
		 M1108.668,194.572l107.3-118.558l107.299,118.558l-107.3,118.557L1108.668,194.572z M1235.515,317.711l99.599-110.049
		l99.599,110.049H1235.515z M1346.96,194.572L1454.26,76.014l107.299,118.558L1454.26,313.129L1346.96,194.572z M1473.807,317.711
		l99.599-110.049l99.599,110.049H1473.807z M1585.252,194.572l106.456-117.625l87.844,117.625l-87.844,117.626L1585.252,194.572z
		 M1826.246,317.711h-119.104l82.186-110.049l82.187,110.049H1826.246z M1891.066,317.711l-91.962-123.139l89.104-119.312h13.005
		l107.982,119.312l-111.446,123.139H1891.066z M2108.826,504.976l-97.43-168.752h97.43V504.976z M1921.443,317.711l99.599-110.049
		l99.599,110.049H1921.443z M2032.889,194.572l107.3-118.558l107.299,118.558l-107.3,118.557L2032.889,194.572z M2217.455,488.867
		V336.224h88.129L2217.455,488.867z M2159.735,317.711l99.599-110.049l99.6,110.049H2159.735z M2378.48,313.129l-107.299-118.557
		L2378.48,76.014l107.299,118.558L2378.48,313.129z M2398.027,317.711l99.599-110.049l99.599,110.049H2398.027z M2509.474,194.572
		l107.299-118.558l107.299,118.558l-107.3,118.557L2509.474,194.572z M2636.319,317.711l99.599-110.049l99.599,110.049H2636.319z
		 M2747.766,194.572l107.299-118.558l107.299,118.558l-107.299,118.557L2747.766,194.572z M2874.611,317.711l99.599-110.049
		l99.599,110.049H2874.611z M2986.057,194.572l107.3-118.558l107.299,118.558l-107.3,118.557L2986.057,194.572z M3112.903,317.711
		l99.599-110.049l99.599,110.049H3112.903z M3224.35,194.572L3332.331,75.26h4.553l107.981,119.312l-110.258,121.827
		L3224.35,194.572z M3357.113,317.711l99.6-110.049l99.598,110.049H3357.113z"/>
	<rect x="2659.446" y="390.066" style="opacity:0.6;fill:#9BC1F9;" width="970.069" height="1225.786"/>
	<rect x="2699.964" y="420.715" style="opacity:0.6;fill:#9BC1F9;" width="929.552" height="91.412"/>
	<rect x="2699.964" y="520.84" style="opacity:0.6;fill:#9BC1F9;" width="929.552" height="91.412"/>
	<rect x="2699.964" y="620.964" style="opacity:0.6;fill:#9BC1F9;" width="929.552" height="91.412"/>
	<rect x="2699.964" y="721.089" style="opacity:0.6;fill:#9BC1F9;" width="929.552" height="91.412"/>
	<rect x="2699.964" y="821.213" style="opacity:0.6;fill:#9BC1F9;" width="929.552" height="91.412"/>
	<rect x="2699.964" y="921.338" style="opacity:0.6;fill:#9BC1F9;" width="929.552" height="91.412"/>
	<rect x="2699.964" y="1021.463" style="opacity:0.6;fill:#9BC1F9;" width="929.552" height="91.411"/>
	<rect x="2699.964" y="1121.587" style="opacity:0.6;fill:#9BC1F9;" width="929.552" height="91.412"/>
	<rect x="2699.964" y="1221.712" style="opacity:0.6;fill:#9BC1F9;" width="929.552" height="91.411"/>
	<rect x="2699.964" y="1321.836" style="opacity:0.6;fill:#9BC1F9;" width="929.552" height="91.412"/>
	<rect x="2699.964" y="1421.961" style="opacity:0.6;fill:#9BC1F9;" width="929.552" height="91.412"/>
	<rect x="2699.964" y="1522.086" style="opacity:0.6;fill:#9BC1F9;" width="929.552" height="91.411"/>
	<rect y="1615.853" style="fill:#FCF0D0;" width="3629.516" height="384.147"/>
	<g>
		<path style="fill:#F7CC7F;" d="M617.936,550.725v-11.051H423.158v11.051H207.143c0,27.006,21.893,48.898,48.898,48.898h521.629
			c27.006,0,48.898-21.892,48.898-48.898H617.936z"/>
		<polygon style="fill:#183658;" points="826.577,520.699 826.577,0 819.227,0 819.227,520.699 210.826,520.699 210.826,0 
			203.476,0 203.476,520.699 182.116,520.699 182.116,569.597 851.597,569.597 851.597,520.699 		"/>
	</g>
	<g>
		<path style="fill:#F7CC7F;" d="M2133.969,550.725v-11.051H1939.19v11.051h-216.015c0,27.006,21.893,48.898,48.898,48.898h521.629
			c27.006,0,48.898-21.892,48.898-48.898H2133.969z"/>
		<polygon style="fill:#183658;" points="2342.609,520.699 2342.609,0 2335.259,0 2335.259,520.699 1726.859,520.699 1726.859,0 
			1719.508,0 1719.508,520.699 1698.148,520.699 1698.148,569.597 2367.629,569.597 2367.629,520.699 		"/>
	</g>
	<rect x="1089.71" y="391.701" style="opacity:0.3;fill:#9BC1F9;" width="169.162" height="60.6"/>
	<rect x="958.168" y="480.675" style="opacity:0.3;fill:#9BC1F9;" width="169.161" height="60.6"/>
	<rect x="1165.971" y="480.675" style="opacity:0.3;fill:#9BC1F9;" width="169.161" height="60.6"/>
	<rect x="1858.68" y="695.475" style="opacity:0.3;fill:#9BC1F9;" width="169.161" height="60.601"/>
	<rect x="1404.245" y="690.789" style="opacity:0.3;fill:#9BC1F9;" width="169.161" height="60.6"/>
	<rect x="1638.595" y="412.545" style="opacity:0.3;fill:#9BC1F9;" width="169.161" height="60.6"/>
	<rect x="1774.1" y="791.166" style="opacity:0.3;fill:#9BC1F9;" width="169.161" height="60.6"/>
	
		<rect x="570.966" y="676.377" transform="matrix(-1 -1.224647e-16 1.224647e-16 -1 1311.0936 1413.3549)" style="opacity:0.3;fill:#9BC1F9;" width="169.161" height="60.6"/>
	
		<rect x="655.547" y="772.068" transform="matrix(-1 -1.224647e-16 1.224647e-16 -1 1480.2549 1604.7369)" style="opacity:0.3;fill:#9BC1F9;" width="169.161" height="60.6"/>
	
		<rect x="115.291" y="1010.661" transform="matrix(-1 -1.224647e-16 1.224647e-16 -1 399.7431 2081.9229)" style="opacity:0.3;fill:#9BC1F9;" width="169.161" height="60.601"/>
	
		<rect x="59.073" y="428.267" transform="matrix(-1 -1.224647e-16 1.224647e-16 -1 287.3067 917.1343)" style="opacity:0.3;fill:#9BC1F9;" width="169.161" height="60.6"/>
	<rect x="1081.39" y="569.648" style="opacity:0.3;fill:#9BC1F9;" width="169.161" height="60.601"/>
	<rect y="668.13" style="opacity:0.3;fill:#9BC1F9;" width="50.851" height="60.6"/>
	<rect y="757.104" style="opacity:0.3;fill:#9BC1F9;" width="127.593" height="60.601"/>
	<rect y="846.078" style="opacity:0.3;fill:#9BC1F9;" width="43.012" height="60.601"/>
	<path style="fill:#EAA93F;" d="M2099.399,1279.17c4.534-0.889,659.22,82.903,662.544,107.674
		c3.323,24.771,14.641,39.283-24.352,38.694c-38.992-0.59-246.85-21.924-306.92-35.257c-60.072-13.333-18.294-22.223-142.738-28.444
		c-124.445-6.223-158.401-20.444-178.756-15.111c-20.355,5.333-59.356-0.129-59.041-10.598S2099.399,1279.17,2099.399,1279.17z"/>
	<path style="fill:#F7CC7F;" d="M2810.066,1467.799c0,0,22.666-4.889,29.777,28.889c7.111,33.778,11.474,59.169,3.515,78.029
		c-7.959,18.859-275.515,44.638-275.515,39.305c0-5.334-60.444-119.556-60.444-119.556s53.333-32.444,56.889-34.223
		C2567.844,1458.466,2810.066,1467.799,2810.066,1467.799z"/>
	<path style="fill:#183658;" d="M2073.711,1292.631c2.667-1.905,163.556,18.539,166.223,18.539
		c2.666,0,477.333,55.274,492.443,74.305c15.111,19.029-329.777-5.805-343.11-7.166c-13.333-1.36-196.638-24.489-199.651-24.48
		c-3.016,0.009-130.127-38.214-130.127-38.214L2073.711,1292.631z"/>
	<path style="fill:#F7CC7F;" d="M528.733,1237.132l180-82.666c0,0,226.666-116,317.333-132c90.667-16,152-18.667,222.667-24.001
		c70.667-5.333,368,4.001,368,4.001s97.778,23.11,151.111,47.11c53.333,24,331.555,198.223,331.555,198.223h45.037
		c0,0-7.226,24.891-45.037,37.001c-15.614,5.001-27.466,29.63-27.466,29.63s187.466,12.036,263.466,22.702
		c66.796,9.375,286.019,44.498,396.978,48.343c30.372,1.052,57.596,19.393,69.554,47.331c4.758,11.117,8.136,23.172,8.136,34.993
		l-261.334,26.667l-311.021,42.909l-114.312,222.424h-1240l-74.667-204l-331.022,13.149l-79.287,190.851
		c0,0-107.025-62.667-160.358-76c-53.333-13.333-48-400-25.333-421.333C235.399,1241.132,442.066,1254.466,528.733,1237.132z"/>
	<path style="fill:#EAA93F;" d="M153.509,1473.531c3.331-27.567,27.866-47.585,55.556-45.495
		c59.422,4.485,157.791,14.856,189.359,35.763c46.309,30.667,63.642,136,63.642,136l-63.642,160l-170.432-76.74
		C227.992,1683.059,133.766,1636.935,153.509,1473.531z"/>
	<path style="fill:#183658;" d="M2365.178,1439.799L2365.178,1439.799c-133.53,0-241.778,108.248-241.778,241.777v78.223h483.556
		v-78.223C2606.955,1548.047,2498.707,1439.799,2365.178,1439.799z"/>
	<path style="fill:#183658;" d="M640.202,1439.799L640.202,1439.799c-133.53,0-241.778,108.248-241.778,241.777v78.223H881.98
		v-78.223C881.98,1548.047,773.732,1439.799,640.202,1439.799z"/>
	<path style="fill:#EAA93F;" d="M2048.288,1267.799c0,0,20.09,15.371,40.09,6.038s23.204-26.038,23.204-26.038h-12.183
		l-27.911,2.927L2048.288,1267.799z"/>
	<g>
		<path style="fill:#EAA93F;" d="M1399.167,1722.222l-1.146-0.035l-433.459-13.1l0.036-1.49
			c2.742-114.784-43.077-191.489-81.998-235.625c-42.204-47.86-85.632-68.834-86.066-69.041l-0.718-0.341l-0.121-0.785
			c-5.25-34.128-43.103-139.99-43.485-141.056l-0.753-2.1l2.229,0.095l667.932,28.499l0.158,1.257
			c16.55,131.478,9.619,242.078,0.89,311.708c-9.463,75.477-23.029,120.472-23.165,120.917L1399.167,1722.222z M967.629,1706.179
			l429.325,12.975c2.113-7.308,14.132-50.651,22.746-119.405c8.672-69.222,15.563-179.035-0.742-309.616l-663.176-28.295
			c5.336,15.03,37.478,106.317,42.755,138.739c5.867,2.954,46.603,24.415,86.225,69.311c25.021,28.351,44.732,60.373,58.585,95.179
			C960.491,1608.139,968.658,1655.605,967.629,1706.179z"/>
	</g>
	<g>
		<path style="fill:#EAA93F;" d="M2016.704,1727.371l-0.873-0.007l-617.777-5.177l0.025-3l616.889,5.169
			c25.002-46.535,34.78-373.936,35.484-398.697l-630.248-35.474l0.169-2.996l633.157,35.638l-0.039,1.456
			c-0.388,14.538-9.797,356.573-36.35,402.334L2016.704,1727.371z"/>
	</g>
	<path style="fill:#EAA93F;" d="M757.177,1252.688c0,0,1.778-42.222,15.111-60.889c13.333-18.667,196.444-106.667,269.778-126.667
		c73.333-20,329.333-28,329.333-28l42.667,234.667L757.177,1252.688z"/>
	<g>
		<path style="fill:#183658;" d="M980.283,1249.522l393.972,8.054l-37.495-206.222c0,0-224.97,7.03-289.414,24.605
			c-18.135,4.946-45.509,15.476-75.747,28.419C974.468,1150.744,978.127,1210.767,980.283,1249.522z"/>
		<path style="fill:#183658;" d="M954.574,1111.786c-73.62,32.52-156.697,75.301-164.507,86.235
			c-11.717,16.403-15.946,47.286-15.946,47.286l185.117,3.784L954.574,1111.786z"/>
	</g>
	<path style="fill:#EAA93F;" d="M1371.399,1037.132c0,0,216.889,9.778,265.778,22.223s168.411,74.094,219.555,108.444
		c38.621,25.939,87.334,71.316,116.81,100.013c9.489,9.239,2.604,25.311-10.63,24.809l-548.846-20.821L1371.399,1037.132z"/>
	<path style="fill:#183658;" d="M1405.163,1051.354c0,0,192.743,8.689,236.188,19.748c43.446,11.06,149.662,65.845,195.113,96.371
		c34.32,23.052,95.407,71.268,121.602,96.77c8.433,8.21,2.314,22.493-9.446,22.047l-505.541-26.395L1405.163,1051.354z"/>
	<path style="fill:#183658;" d="M1775.13,1053.076l-18.81,8.647c-3.394,1.561-3.776,6.232-0.681,8.323l292.649,197.752
		c0,0,43.556,13.777,51.111-20C2099.399,1247.799,1821.082,1074.353,1775.13,1053.076z"/>
	<path style="fill:#CF283C;" d="M2669.622,1393.85c0,0-14.955,7.646-18.955,19.398s11.929,45.135,55.406,43.541
		S2669.622,1393.85,2669.622,1393.85z"/>
	<g>
		
			<ellipse transform="matrix(1 -0.0019 0.0019 1 -3.1446 1.2218)" style="fill:#1A1A1A;" cx="649.936" cy="1677.379" rx="196.626" ry="196.692"/>
		
			<ellipse transform="matrix(1 -0.0024 0.0024 1 -4.0904 1.5907)" style="fill:#9E9DA2;" cx="649.937" cy="1677.379" rx="136.806" ry="136.852"/>
		
			<ellipse transform="matrix(1 -0.0037 0.0037 1 -6.1608 2.4002)" style="fill:#D8D9DD;" cx="649.937" cy="1677.379" rx="91.493" ry="91.523"/>
	</g>
	
		<ellipse transform="matrix(1 -0.0019 0.0019 1 -3.153 4.4587)" style="fill:#1A1A1A;" cx="2367.27" cy="1677.379" rx="196.626" ry="196.692"/>
	
		<ellipse transform="matrix(1 -0.0025 0.0025 1 -4.1079 5.8125)" style="fill:#9E9DA2;" cx="2367.27" cy="1677.379" rx="136.806" ry="136.852"/>
	
		<ellipse transform="matrix(1 -0.0037 0.0037 1 -6.2258 8.8212)" style="fill:#D8D9DD;" cx="2367.27" cy="1677.379" rx="91.493" ry="91.523"/>
	<path style="fill:#EAA93F;" d="M2139.084,1744.493l-1271.769-16.241c-13.874-0.177-11.534,69.355-14.473,77.686
		c-3.07,8.701,9.475,16.754,26.386,16.754h1244.516c24.414,0,32.021-12.473,28.837-25.137
		C2151.087,1791.617,2154.647,1744.691,2139.084,1744.493z"/>
	<path style="fill:#EAA93F;" d="M2605.018,1557.14c-9.557-0.386-16.932,13.477-15.707,29.155
		c1.361,17.42-7.881,173.504,17.645,173.504l178.666-40.297c65.809-36.147,65.778-116.447,65.778-116.447
		c0-20.006-9.65-36.359-21.743-36.848L2605.018,1557.14z"/>
	<path style="fill:#EAA93F;" d="M996.015,1337.139l-140.368-7.53c-6.511-0.35-11.506-5.911-11.157-12.422l0.155-2.879
		c0.349-6.511,5.91-11.506,12.421-11.156l140.369,7.53c6.511,0.35,11.505,5.91,11.156,12.422l-0.155,2.879
		C1008.086,1332.493,1002.525,1337.488,996.015,1337.139z"/>
	<path style="fill:#EAA93F;" d="M1623.861,1370.821l-140.368-7.53c-6.511-0.35-11.506-5.91-11.156-12.421l0.154-2.88
		c0.349-6.511,5.91-11.506,12.421-11.156l140.369,7.531c6.511,0.349,11.505,5.91,11.156,12.421l-0.154,2.879
		C1635.933,1366.176,1630.372,1371.171,1623.861,1370.821z"/>
	<path style="fill:#CF283C;" d="M202.386,1294.757h138.004c11.821,0,19.829,12.039,15.259,22.941l-15.503,36.99
		c-14.779,35.263-49.279,58.21-87.513,58.21h-50.247c-9.835,0-17.808-7.973-17.808-17.808v-82.525
		C184.578,1302.73,192.551,1294.757,202.386,1294.757z"/>
	<path style="fill:#EAFCFC;" d="M2693.921,1383.276c0,0-35.114,4.967-29.188,28.078c4.084,15.927,27.302,35.071,41.341,45.435
		c6.655,4.912,14.629,7.704,22.895,8.01l81.099,3c0,0,7.793-24.836-18.916-60.669c-10.34-13.873-26.543-22.16-43.84-22.575
		L2693.921,1383.276z"/>
	<polygon style="fill:#F47458;" points="2446.559,1352.437 2452.935,1353.828 2492.708,800.961 2485.244,809.354 	"/>
	<path style="fill:#F7CC7F;" d="M2111.582,1247.799c0,0,365.988-484.772,434.954-478.532c0,0,4.616-1.881-14.288,17.828
		c-56.682,59.093-204.691,236.452-229.912,271.271c-25.22,34.819-166.885,204.142-166.885,204.142L2111.582,1247.799z"/>
	<polygon style="opacity:0.1;fill:#EAFCFC;" points="1106.534,1066.145 1052.372,1250.996 1152.829,1253.05 1194.462,1058.475 	"/>
	<path style="opacity:0.1;fill:#EAFCFC;" d="M1219.761,1056.852c0,0-44.979,196.646-41.449,196.719s26.667,0.546,26.667,0.546
		l46.845-199.077L1219.761,1056.852z"/>
	<polygon style="opacity:0.1;fill:#EAFCFC;" points="1557.587,1060.801 1506.275,1263.195 1577.415,1266.726 1621.563,1067.022 	"/>
	<path style="opacity:0.1;fill:#EAFCFC;" d="M1695.053,1091.469c-10.2-4.56-19.869-8.634-28.631-12.014l-35.676,190.238h0.001
		c0.422,0.01,1.127,0.049,2.033,0.106l24.654,1.287L1695.053,1091.469z"/>
	<g>
		<g>
			<path style="fill:#F7A491;" d="M2413.022,1032.629c1.004-1.063,1.757-3.889,2.834-4.837c7.276,5.873,9.87,22.529,11.344,21.593
				c1.919-1.217,0.878-2.163,0.582-4.143c-0.294-1.979-0.092-1.304-0.386-3.283c-0.296-1.979,3.188-2.444,5.626-2.984
				c2.436-0.541,2.714,2.684,3.187,5.521c1.467,8.794,5.034,30.345,5.048,33.194l75.29,69.146c0,0,21.525-11.829,40.825-33.242
				c2.872,4.543,5.87,7.263,8.735,6.341c5.739-1.848,34.358-5.543,60.938-10.956c-19.601,25.668-42.432,49.787-54.066,61.184
				c-26.199,25.666-59.785,45.376-66.242,41.449c-7.361-4.477-86.479-109.549-86.488-109.564c0,0-15.55-16.262-21.8-22.038
				c-5.487-5.07-9.383-11.286-12.021-15.786C2398.047,1055.922,2403.768,1043.398,2413.022,1032.629z"/>
			<path style="fill:#13375B;" d="M2330.246,1102.311c0.151,0.857,0.365,1.711,0.637,2.537c0.235,0.716,0.637,0.827,1.302,0.464
				c0.275-0.151,0.536-0.337,0.78-0.535c0.736-0.599,1.464-1.207,2.189-1.817c2.576-2.166,5.142-4.345,7.73-6.495
				c0.594-0.493,1.229-0.992,2.112-0.716c3.225,1.01,6.448,2.027,9.683,3.004c0.593,0.179,0.937,0.483,1.039,1.07
				c0.43,2.453,0.896,4.901,1.261,7.364c0.14,0.945,0.136,1.935,0.042,2.89c-0.191,1.943-1.09,3.582-2.654,4.733
				c-2.797,2.06-5.244,4.508-7.828,6.806c-1.017,0.902-0.92,1.354,0.38,1.762c2.205,0.692,4.449,1.161,6.771,1.268
				c2.598,0.119,5.137-0.167,7.565-1.083c5.759-2.171,9.987-6.096,12.781-11.539c2.315-4.511,2.929-9.29,1.817-14.252
				c-0.432-1.923,0.188-3.442,1.609-4.677c1.836-1.593,3.725-3.126,5.571-4.706c5.767-4.935,11.507-9.9,17.291-14.815
				c10.66-9.059,21.331-18.104,32.024-27.125c3.17-2.675,6.422-5.252,9.646-7.861c2.095-1.697,4.418-2.016,6.973-1.194
				c3.635,1.169,7.318,1.215,11.003,0.238c6.2-1.643,11.052-5.164,14.342-10.673c2.346-3.927,3.563-8.181,2.742-12.806
				c-0.192-1.084-0.614-2.137-1.017-3.17c-0.229-0.585-0.59-0.622-1.042-0.209c-1.551,1.415-3.054,2.885-4.645,4.253
				c-1.548,1.332-3.151,2.606-4.788,3.827c-1.329,0.991-2.898,1.361-4.5,0.937c-2.673-0.708-5.333-1.484-7.948-2.378
				c-2.017-0.69-3.145-2.257-3.441-4.365c-0.223-1.583-0.461-3.173-0.534-4.767c-0.119-2.599,0.66-4.863,2.756-6.58
				c0.976-0.8,1.914-1.658,2.786-2.568c1.326-1.383,2.582-2.835,3.862-4.262c0.16-0.179,0.307-0.377,0.424-0.586
				c0.205-0.362,0.107-0.668-0.28-0.812c-0.327-0.122-0.677-0.205-1.023-0.25c-2.556-0.339-5.111-0.459-7.665,0.019
				c-0.333,0.041-0.665,0.085-0.998,0.122c-4.741,0.52-8.855,2.366-12.117,5.892c-5.227,5.65-7.092,12.254-5.4,19.798
				c0.346,1.541-0.02,2.793-1.217,3.805c-2.145,1.813-4.296,3.618-6.441,5.432c-9.944,8.405-19.873,16.831-29.838,25.213
				c-7.16,6.024-14.366,11.993-21.556,17.982c-2.858,2.382-5.716,4.765-8.595,7.122c-1.192,0.977-2.524,1.115-3.906,0.402
				c-3.742-1.934-7.662-2.079-11.678-1.146c-5.158,1.2-9.49,3.776-12.949,7.814
				C2331.182,1090.487,2329.119,1095.914,2330.246,1102.311z"/>
			<path style="fill:#E59588;" d="M2407.509,1069.585c-2.321,3.284-6.757,4.312-10.284,2.379
				c-6.637-3.64-16.927-10.944-13.559-19.932c4.861-12.971,30.828-28.456,32.999-23.638s2.385,33.913-3.017,35.549
				C2410.518,1064.891,2409.202,1067.189,2407.509,1069.585z"/>
		</g>
		<path style="fill:#B75742;" d="M2555.236,1185.845l-25.107-47.897c0,0,52.621-89,69.856-107.186
			c63.251-66.742,73.204,10.014,74.153,24.666C2676.262,1088.203,2555.236,1185.845,2555.236,1185.845z"/>
		<path style="fill:#F47458;" d="M2720.255,1203.864l92.772-132.381c-38.214-50.023-46.547-53.878-60.256-67.755
			c-49.889-50.5-61.223-43.41-74.481-38.838c-9.009,3.106-22.801,17.463-22.801,17.463s-37.097,27.058-54.138,46.072
			c-16.135,18.003,71.715,120.934,96.992,149.56C2702.407,1182.588,2709.979,1191.516,2720.255,1203.864z"/>
		<path style="fill:#F7A491;" d="M2840.631,1806.806c0,0,1.988,35.24,2,35.313c0.731,4.474,3.611,15.528,3.611,19.595
			c0,15.28-67.792-12.97-52.599-19.742c1.376-0.613,8.579-5.249,9.031-10.448c0.697-8.014,2.465-24.224,2.465-24.224
			L2840.631,1806.806z"/>
		<path style="fill:#13375B;" d="M2792.993,1842.123c0,0,15.916,4.674,24.067,5.843c8.152,1.169,18.899-8.671,24.665-6.013
			c6.346,2.925,6.098,29.257,6.098,29.257s-85.352,7.495-109.352-0.259C2728.964,1867.879,2760.455,1853.01,2792.993,1842.123z"/>
		<path style="fill:#F7A491;" d="M3006.555,1796.531c0,0,4.551,35.002,4.568,35.073c1.055,4.409,4.732,15.225,5.028,19.28
			c1.114,15.24-68.556-7.996-53.896-15.857c1.327-0.711,10.053-9.467,10.125-14.686c0.11-8.043-1.186-20.731-1.186-20.731
			L3006.555,1796.531z"/>
		<path style="fill:#13375B;" d="M2962.412,1834.871c0,0,16.214,3.502,24.429,4.073c8.216,0.571,18.217-10.024,24.161-7.794
			c6.543,2.455,8.714,28.697,8.714,28.697s-84.265,9.646-109.58,7.747C2900.174,1866.848,2930.754,1848.1,2962.412,1834.871z"/>
		<path style="fill:#0A253A;" d="M2915.164,1216.939c0,0,40.72,29.468,39.334,74.764c-1.385,45.297,15.538,256.818,15.538,256.818
			l40.201,253.854l-45.922,4.434c0,0-68.794-251.728-67.38-245.24c1.412,6.488-29.947-178.593-29.947-178.593l49.367-146.725
			L2915.164,1216.939z"/>
		<path style="fill:#F7A491;" d="M2608.765,951.136l46.725,31.217c0,0,3.128,40.725-13.065,51.707
			c-13.586,9.215-22.853-13.564-22.853-13.564s-18.419-25.525-32.409-33.475C2573.171,979.07,2608.765,951.136,2608.765,951.136z"/>
		<path style="fill:#F47458;" d="M2617.076,969.746c-1.863,8.82-6.176,21.574-12.855,32.079
			c-5.457-5.903-11.591-11.696-17.059-14.803c-6.457-3.669-2.348-11.593,3.945-19.065c8.887-9.253,17.657-16.82,17.657-16.82
			l9.52,5.572C2618.898,960.319,2617.697,966.808,2617.076,969.746z"/>
		<path style="fill:#F7A491;" d="M2582.967,878.463c0.831-1.03,41.549,49.654,36.527,73.428
			c-5.021,23.773-29.635,45.468-46.742,39.503c-18.924-6.598-54.109-66.266-41.489-95.237
			C2543.882,867.186,2582.967,878.463,2582.967,878.463z"/>
		<path style="fill:#13375B;" d="M2538.383,862.477c17.75-9.874,46.704-12.708,68.336-1.381
			c26.6,13.927,32.658,48.966,24.331,70.339c-8.327,21.374,0.398,34.856,0.398,34.856l-13.057-8.723c0,0-8.483-13.782-9.561-24.035
			c-1.076-10.252-16.034-8.437-23.335-13.086c-5.622-3.581-12.798-15.216-21.895-21.253c0,0-22.904-2.81-34.168,3.511
			C2510.231,913.479,2512.96,876.619,2538.383,862.477z"/>
		<path style="fill:#F7A491;" d="M2596.939,928.988c-0.131,7.604,3.463,13.828,8.027,13.903c4.564,0.075,8.371-6.028,8.503-13.632
			c0.132-7.604-3.462-13.829-8.027-13.903C2600.878,915.281,2597.071,921.384,2596.939,928.988z"/>
		<path style="fill:#FFFFFF;" d="M2555.236,969.347l21.556-16.119c0,0,5.699,8.709-3.573,16.077
			C2561.914,978.288,2555.236,969.347,2555.236,969.347z"/>
		<path style="fill:#13375B;" d="M2933.434,1228.39c0,0-70.295-90.706-123.271-160.688c-3.465,13.511-27.426,29.72-33.217,30.211
			c-35.446,3.01-95.371-117.333-94.177-121.432l-4.14-11.708c-9.868,2.356-16.828,10.367-16.828,10.367
			c18.843,78.832,83.351,152.098,83.351,152.098c-21.972,21.555-55.717,40.531-55.721,40.533c3.449,3.996,6.477,7.457,8.912,10.216
			c11.309,12.808,99.072,120.613,99.072,120.613l-13.124,289.654l10.664,230.8l49.293,1.482c0,0,23.594-207.589,24.531-226.371
			c0.936-18.78,73.474-248.553,81.25-272.605C2961.505,1286.065,2949.078,1248.125,2933.434,1228.39z"/>
		<path style="fill:#F8A492;" d="M2567.877,1362.879c2.919-9.292,1.828-21.091,6.523-31.775c1.578-3.589,4.488-7.979,7.946-12.523
			c28.761-31.16,103.85-111.774,106.149-116.955c2.725-6.138,28.18-134.603,28.18-134.603l-54.521,10.451l-25.205,113.13
			c-3.457,5.014-70.627,95.555-70.627,95.555s-13.133,18.733-20.637,27.914c-3.915,4.231-7.984,7.438-11.598,10.078
			c-4.547,3.321-12.77,11.108-14.202,13.431c-1.666,2.699-4.917,8.376-6.829,11.817c-1.912,3.442-4.297,7.4-5.09,9.344
			c-0.483,1.182-2.482,3.22-3.975,4.634c-2.221,2.106-0.697,5.882,2.362,5.819c2.884-0.059,5.963-2.816,7.868-4.54
			c5.377-4.865,10.617-15.17,11.32-14.32c0.703,0.851-1.879,20.293-2.03,22.534c-0.152,2.242-3.03,24.855-2.137,29.43
			c0.895,4.574,3.877,4.782,5.37,2.555c1.284-1.916,7.567-32.856,7.567-32.856s0.811-3.944,2.116-2.228s-4.344,29.82-4.405,34.169
			c-0.063,4.35,1.939,7.288,5.179,4.782c3.938-3.047,8.122-33.418,8.122-33.418s0.591-3.798,2.036-2.979
			c1.445,0.818-3.76,24.649-3.173,27.033c0.589,2.383,3.41,4.049,5.892,1.15c2.923-3.412,6.424-30.558,6.424-30.558
			s0.85-1.984,1.605-1.003c0.758,0.981-2.23,21.616-0.793,24.06c1.208,2.052,3.064,1.001,3.064,1.001
			C2564.82,1392.64,2564.957,1372.171,2567.877,1362.879z"/>
		<path style="fill:#B75742;" d="M2700.378,1165.393l-55.767-15.465c0,0-5.997-104.823-2.859-130.163
			c11.517-92.996,71.547-54.729,81.187-43.285C2744.501,1002.08,2700.378,1165.393,2700.378,1165.393z"/>
	</g>
	<path style="fill:#183658;" d="M564.217,1220.836c0,0,34.827,14.554,65.494,0c30.667-14.555,296-152.182,314.667-160.035
		c18.667-7.853-14.427-7.725-14.427-7.725s-106.932,43.037-156.919,69.677L564.217,1220.836z"/>
	<path style="fill:#EAA93F;" d="M1986.886,1230.281c1.532,0,40.974,9.421,40.974,9.421c11.512,3.505,19.074,14.496,18.234,26.501
		l-1.201,17.165c-0.802,11.448-9.062,20.993-20.277,23.427c-24.844,5.391-44.534,7.602-44.534,6.022
		C1980.081,1310.54,1986.886,1230.281,1986.886,1230.281z"/>
</g>
</svg>
