<?xml version="1.0" encoding="utf-8"?>
<!-- Generator: Adobe Illustrator 27.5.0, SVG Export Plug-In . SVG Version: 6.00 Build 0)  -->
<svg version="1.1" xmlns="http://www.w3.org/2000/svg" xmlns:xlink="http://www.w3.org/1999/xlink" x="0px" y="0px"
	 viewBox="0 0 1100 800" style="enable-background:new 0 0 1100 800;" xml:space="preserve">
<g id="Shadow">
	<g style="opacity:0.04;">
		<path style="fill:#2D2A27;" d="M503.964,626.118c-28.193,0.084-56.385,0.762-84.528,3.892c-10.611,1.18-21,3.776-31.635,4.823
			c-21.244,2.092-42.107,5.993-63.426,7.793c-17.168,1.449-34.408,2.305-51.526,4.143c-16.049,1.724-33.816,1.326-49.742-1.522
			c-11.79-2.109-23.633-3.296-35.225-6.682c-12.967-3.789-27.055-6.498-40.565-6.4c-19.266,0.139-38.028,0.155-56.466,6.845
			c-6.472,2.348-14.395,6.209-19.31,11.137c-11.251,11.282-12.774,39.432-1.54,51.133c18.921,19.693,59.305,27.42,85.827,27.785
			c29.063,0.4,57.296-1.758,86.402-3.026c27.045-1.179,54.023-2.856,81.113-2.797c55.328,0.121,110.664,0,165.893-3.696
			c51.888-3.472,103.907-2.28,155.909-2.28c53.326,0,106.291,0.419,159.233,7.506c23.067,3.088,46.568,4.169,69.75,6.332
			c20.762,1.938,40.714-0.038,61.394-1.829c17.365-1.504,34.616-5.964,50.391-13.503c12.487-5.968,34.749-24.507,38.579-38.752
			c10.736-39.935-151.3-38.975-176.179-38.885c-27.831,0.101-55.884,1.016-83.693-0.045c-11.698-0.446-23.224-2.733-34.641-5.238
			c-11.372-2.495-22.83-1.861-34.362-2.91c-48.092-4.374-96.291-3.734-144.536-3.734
			C535.379,626.209,519.671,626.071,503.964,626.118z"/>
	</g>
</g>
<g id="Object">
	<g>
		<g>
			<g>
				<g>
					<polygon style="fill:#EAC1A4;" points="385.165,421.32 396.498,421.426 396.751,416.142 389.005,414.193 390.187,411.754 
						380.479,412.952 379.537,418.408 					"/>
				</g>
				<g>
					<polygon style="fill:#7DB5DB;" points="317.538,352.239 334.505,396.921 383.642,411.344 381.265,422.064 319.794,419.069 
						287.776,369.494 					"/>
				</g>
			</g>
			<path style="fill:#7DB5DB;" d="M287.371,363.744c-0.205,0.007-0.41,0.015-0.614,0.024c-9.754,0.466-21.566,13.025-28.408,20.437
				c-17.663,19.134-29.999,41.061-39.232,65.575c-4.972,13.2-9.361,26.615-13.476,40.106c-1.137,3.727-9.12,37.813-11.056,38.056
				c19.854-2.487,39.842-4.432,59.617-3.086c19.775,1.346,39.441,6.102,56.395,16.33c8.681-43.745,15.098-89.044,17.201-133.371
				c0.252-5.302,1.076-10.771,0.566-16.041c-0.586-6.069-3.636-8.803-7.097-13.411c-1.186-1.579-2.381-3.167-3.831-4.473
				C309.794,367.014,297.591,363.418,287.371,363.744z"/>
			<g>
				<g>
					<polygon style="fill:#EBCEB1;" points="218.103,512.352 238.764,594.6 239.226,655.225 249.258,657.352 253.178,600.97 
						263.026,497.714 					"/>
				</g>
				<polygon style="fill:#3B455A;" points="249.385,659.052 251.005,665.201 249.583,677.266 241.453,677.28 238.409,659.841 
					239.353,656.925 				"/>
			</g>
			<g>
				<polygon style="fill:#EBCEB1;" points="296.988,503.267 298.811,574.338 289.139,674.714 279.235,675.426 275.677,583.404 
					255.509,499.981 				"/>
				<polygon style="fill:#3B455A;" points="288.829,673.037 302.169,679.984 301.11,686.095 277.545,683.264 278.678,674.469 				
					"/>
			</g>
			<polygon style="fill:#3B455A;" points="299.891,512.437 306.604,594.548 299.775,650.861 272.948,649.37 268.168,585.348 
				256.567,515.549 258.369,504.682 297.031,505.238 			"/>
			<polygon style="fill:#3B455A;" points="259.221,588.574 256.069,647.47 232.751,646.297 233.226,590.441 218.523,520.296 
				221.878,500.688 261.095,503.083 			"/>
			<path style="fill:#FFFFFF;" d="M304.758,519.213c-23.926-4.048-62.694-13.854-86.62-17.902
				c12.521-40.772,32.45-86.066,55.685-121.88c4.214-6.496,9.48-13.273,17.022-14.815c8.08-1.651,22.246,3.572,23.815,12.436
				c2.296,12.968-2.47,30.853-3.94,43.966C307.392,450.689,310.543,489.901,304.758,519.213z"/>
			<g>
				<path style="fill:#EAC1A4;" d="M331.225,342.156c3.226-17.428-18.569-22.419-29.658-11.499
					c-7.305,7.193-6.969,22.051,0.436,29.21c-1.439,1.992-2.793,4.045-4.052,6.151c2.464,1.122,4.928,2.244,7.392,3.366
					c0.763,0.347,1.685,0.689,2.401,0.257c0.434-0.262,0.665-0.744,0.874-1.2c0.702-1.536,1.404-3.072,2.107-4.608
					c0.214,0.019,0.429,0.035,0.648,0.046c5.421,0.263,10.619-2.794,13.926-7.014C328.604,352.644,330.256,347.394,331.225,342.156z
					"/>
				<g>
					<g>
						<path style="fill:#3B455A;" d="M327.367,345.763c0.631,5.875-3.367,11.132-6.848,15.611c-3.086,3.972-4.467,6.727,0.582,9.067
							c2.845,1.319,7.879,3.72,11.01,2.037c2.371-1.275,2.433-6.779,1.934-9.078c-0.381-1.756-2.156-2.989-2.489-4.754
							c-0.137-0.728-0.013-1.476,0.139-2.201c0.62-2.96,1.7-5.828,3.189-8.473c1.012-1.796,2.222-3.514,2.845-5.473
							c0.904-2.841-0.428-6.665-0.928-9.562c-0.931-5.39-6.546-13.561-13.366-10.959c-1.553,0.593-2.677,1.918-3.663,3.235
							c-0.589,0.786-1.167,1.615-1.392,2.565c-0.898,3.79,2.496,5.195,4.534,7.53C325.427,338.189,326.964,342.014,327.367,345.763z
							"/>
						<path style="fill:#3B455A;" d="M299.038,340.587c-0.825,2.643-0.056,5.945-2.07,7.878c-0.897,0.861-2.159,1.221-3.281,1.774
							c-3.065,1.508-5.194,4.699-5.376,8.058c-5.447-1.393-10.894-2.786-16.341-4.178c-0.821-0.21-1.681-0.44-2.295-1.015
							c-1.313-1.227-0.925-3.333-0.438-5.047c0.96-3.375,2.064-6.972,4.835-9.184c1.285-1.025,2.846-1.676,4.128-2.705
							c6.162-4.952,3.807-16.49,10.797-20.238c3.119-1.673,6.952-1.02,10.452-1.63c6.103-1.064,11.053-5.957,17.213-6.631
							c11.634-1.272,19.218,13.936,10.681,22.012C320.381,336.266,302.36,329.944,299.038,340.587z"/>
					</g>
				</g>
			</g>
			<path style="fill:#7DB5DB;" d="M286.073,366.162c0,0-41.378,97.869-32.24,122.833c9.138,24.964,13.39,34.635,13.39,34.635
				l-63.36,2.597C203.864,526.227,244.305,383.249,286.073,366.162z"/>
		</g>
		<g>
			<g>
				<g>
					<path style="fill:#587BC9;" d="M886.837,585.314l-0.077,60.406l-75.072-0.096c0.133-1.384,0.197-2.789,0.197-4.202
						c0.035-26.614-21.932-48.222-49.067-48.256c-27.136-0.027-49.159,21.518-49.194,48.132c0,1.419,0.056,2.817,0.183,4.201
						l-385.902-0.482l0.056-42.457c0.035-28.254,16.482-54.021,42.375-66.406l73.766-22.688l3.666-0.028l36.609-79.341
						c10.513-22.785,32.796-37.284,57.242-37.256l220.104,0.275c23.161,0.028,30.689,28.791,39.039,45.604
						c9.502,19.107,19.003,38.221,28.505,57.327c1.798,3.623,3.603,7.246,5.4,10.862l0.948-0.007l31.525,29.349
						C879.737,551.984,886.858,568.273,886.837,585.314z"/>
					<path style="fill:#D7E8F4;" d="M652.25,504.574l146.851,0.184l-33.247-80.608c-1.656-4.013-5.47-6.62-9.696-6.625
						l-103.795-0.13L652.25,504.574z"/>
					<path style="fill:#D7E8F4;" d="M627.243,417.363l-84.12-0.105c-17.826-0.022-34.073,10.553-41.739,27.167l-27.649,59.926
						l153.395,0.192L627.243,417.363z"/>
					<g style="opacity:0.2;">
						<path style="fill:#F4F4F2;" d="M769.863,443.647c1.951,1.026,3.901,2.058,5.851,3.087l-9.097-22.056
							c-1.656-4.013-5.47-6.62-9.696-6.625l-35.957-0.045C737.207,426.655,753.576,435.079,769.863,443.647z"/>
						<path style="fill:#F4F4F2;" d="M772.685,462.875c-26.936-14.34-55.264-30.607-81.923-45.432l-33.733,0.486
							c23.094,19.478,52.285,36.797,78.074,52.393c15.502,9.375,31.33,18.237,47.545,26.373c5.314,2.667,10.878,5.086,16.454,7.53
							l-14.392-34.894C780.708,467.165,776.699,465.012,772.685,462.875z"/>
						<path style="fill:#F4F4F2;" d="M600.703,469.497c-11.327-7.202-23.065-13.844-34.876-20.248
							c-11.961-6.485-24.088-12.996-36.624-18.361c-4.132-1.769-8.313-3.413-12.481-5.077c-6.467,4.642-11.816,10.979-15.339,18.614
							l-0.268,0.583c12.681,8.715,25.448,17.319,38.042,26.103c18.63,12.995,39.195,22.84,59.314,33.396l28.659,0.036l0.02-15.798
							C618.341,482.317,609.925,475.36,600.703,469.497z"/>
					</g>
					<g>
						<path style="opacity:0.1;" d="M539.47,645.283c0.494-2.46,0.753-4.987,0.756-7.563c0.033-25.369-24.671-45.965-55.178-46.004
							c-11.913-0.015-22.939,3.118-31.968,8.44c18.807,3.905,35.372,13.147,48.883,25.245c6.882,6.163,12.239,12.751,16.366,19.726
							L539.47,645.283z"/>
					</g>
					<g>
						<path style="opacity:0.1;" d="M828.853,645.645c0.482-2.46,0.735-4.987,0.738-7.563c0.033-25.369-24.086-45.965-53.871-46.002
							c-11.631-0.015-22.396,3.118-31.212,8.441c18.362,3.905,34.535,13.146,47.726,25.243c6.719,6.162,11.949,12.75,15.978,19.725
							L828.853,645.645z"/>
					</g>
					<g>
						<ellipse style="fill:#3B455A;" cx="473.559" cy="639.89" rx="49.131" ry="48.188"/>
						<g>
							<g>
								<ellipse style="fill:#F4F4F2;" cx="473.559" cy="639.89" rx="27.886" ry="27.351"/>
							</g>
							<path style="opacity:0.1;" d="M478.431,658.948c5.326-0.391,10.699-2.227,14.471-5.936
								c-1.658,4.774-5.836,8.629-10.796,9.961c-1.684,0.452-3.433,0.628-5.176,0.74c-1.845,0.119-3.707,0.169-5.537-0.092
								c-4.93-0.702-9.449-3.779-11.843-8.063c0.784,1.388,6.25,2.373,7.608,2.616C470.869,658.838,474.659,659.225,478.431,658.948
								z"/>
						</g>
					</g>
					<path style="opacity:0.3;fill:#3B455A;" d="M811.884,641.422c0,1.412-0.063,2.817-0.197,4.202l-97.882-0.124
						c-0.127-1.384-0.183-2.783-0.183-4.201c0.035-26.615,22.058-48.16,49.194-48.132
						C789.953,593.201,811.919,614.808,811.884,641.422z"/>
					<g>
						<g>
							<g>
								<path style="fill:#EFEFEA;" d="M757.184,653.392c-8.104-3.092-12.118-12.043-8.965-19.992
									c3.153-7.949,12.279-11.886,20.383-8.793c8.104,3.092,12.118,12.043,8.965,19.992
									C774.414,652.548,765.289,656.484,757.184,653.392z"/>
							</g>
							<path style="opacity:0.1;" d="M765.644,649.761c3.007-0.221,6.041-1.257,8.171-3.352c-0.936,2.696-3.295,4.872-6.096,5.624
								c-0.951,0.255-1.938,0.355-2.922,0.418c-1.042,0.067-2.093,0.095-3.126-0.052c-2.784-0.396-5.335-2.134-6.687-4.553
								c0.443,0.784,3.529,1.34,4.296,1.477C761.374,649.698,763.514,649.917,765.644,649.761z"/>
						</g>
					</g>
				</g>
				<path style="fill:#B25959;" d="M612.381,540.425l-22.426-0.028c-1.183-0.001-2.141-0.962-2.14-2.145l0.009-6.978
					c0.002-1.183,0.962-2.141,2.145-2.14l22.426,0.028c1.183,0.001,2.141,0.962,2.14,2.145l-0.009,6.978
					C614.525,539.469,613.564,540.427,612.381,540.425z"/>
			</g>
			<path style="fill:#587BC9;" d="M452.9,517.814c0,0-48.284-73.743-56.709-84.517c-8.425-10.773-24.58-13.936-39.346-4.085
				l3.737,6.73c0,0,16.16-9.464,27.254-0.048l55.236,82.202L452.9,517.814z"/>
		</g>
		<g id="XMLID_53_">
			<polygon id="XMLID_55_" style="fill:#EAC1A4;" points="831.736,384.137 826.764,380.179 826.269,374.661 825.023,374.17 
				824.345,375.65 822.598,371.185 819.149,369.282 814.38,371.472 811.912,376.227 814.63,380.64 820.107,383.598 826.674,389.306 
							"/>
			<polygon id="XMLID_54_" style="fill:#3B455A;" points="830.784,379.764 858.748,400.32 909.763,374.127 915.627,406.459 
				864.14,427.345 849.613,425.655 819.514,386.442 			"/>
		</g>
		<g id="XMLID_48_">
			<path id="XMLID_52_" style="fill:#3B455A;" d="M946.196,469.163c-1.832-8.943-3.265-17.196-3.396-21.673
				c-0.395-13.463-2.151-57.926-2.151-57.926l-8.52-17.007l-1.573,0.015c0.113-0.013,0.226-0.026,0.339-0.039
				c-0.159-1.452-0.092-2.656,0.136-3.71c14.855,0.876,30.082,8.517,34.345,22.702c0.351,1.168,0.625,2.363,0.724,3.577
				c0.595,7.288-1.675,12.672,0.468,19.992c1.863,6.361,3.551,12.815,4.791,19.324c1.794,9.421,3.451,18.797,4.756,28.149
				c1.445,10.357,2.464,20.684,2.758,30.951c0.033,1.135,0.266,4.308,0.396,8.1c0.274,7.942,0.098,18.566-3.311,18.962
				c-0.638,0.074-1.254-0.203-1.816-0.47c-4.386-2.09-7.841-4.819-11.709-7.203l-0.208-41.429L946.196,469.163z"/>
			<path id="XMLID_51_" style="fill:#3B455A;" d="M867.833,511.743c0.872-8.816,1.778-17.631,2.883-26.422
				c2.206-17.535,5.208-35.029,10.288-52.004c1.941-6.485,4.18-12.879,6.418-19.271c2.725-7.784,5.451-15.568,8.176-23.352
				c3.387-9.674,9.104-16.49,19.114-19.874c1.788-0.604,3.669-1.071,5.609-1.412c0.047,0.2,0.09,0.403,0.117,0.616
				c0.116,0.929,0.387,1.96,0.986,2.633l-6.57,0.061c0,0-18.536,63.534-19.217,74.484c-0.259,4.163-1.12,13.249-2.078,22.822
				l-10.066,1.454l-0.432,36.614c-0.563,0.159-1.124,0.313-1.68,0.457c-3.194,0.831-5.792,3.114-8.445,4.905
				C869.017,516.099,867.299,517.146,867.833,511.743z"/>
			<g>
				<polygon style="fill:#2E4661;" points="1006.856,654.659 1010.311,661.573 998.954,675.012 991.859,671.949 997.279,657.225 
					1004.292,649.467 				"/>
				<g>
					<polygon style="fill:#3B455A;" points="1005.759,651.915 974.147,585.348 957.3,504.734 949.513,488.967 906.066,501.462 
						909.841,513.902 944.381,595.245 996.276,658.963 					"/>
				</g>
			</g>
			<g>
				<polygon style="fill:#3B455A;" points="891.123,477.746 886.617,573.077 897.257,668.451 908.128,668.836 918.22,581.54 
					936.323,494.528 				"/>
				<polygon style="fill:#2E4661;" points="908.857,677.699 887.165,683.885 885.938,676.662 897.755,668.473 908.233,668.844 				
					"/>
			</g>
			<path id="XMLID_50_" style="fill:#3B455A;" d="M893.559,470.025c-1.516,15.149-3.275,31.515-3.275,31.515s8.138,0.189,19.91,1.05
				c-0.871-0.02-1.742-0.043-2.612-0.05c-8.188-0.071-16.681,3.341-24.521,5.553l0.432-36.614L893.559,470.025z"/>
			<path id="XMLID_49_" style="fill:#3B455A;" d="M948.504,507.197c5.613,0.287,6.311-0.733,6.311-0.733s-5.064-19.949-8.62-37.301
				l16.03,2.315l0.208,41.429c-1.36-0.838-2.77-1.634-4.29-2.345C955.096,509.14,951.842,508.056,948.504,507.197z"/>
			<path style="fill:#FFFFFF;" d="M891.315,472.372c1.043-9.803,1.98-19.108,2.262-23.371c0.741-11.214,20.913-76.278,20.913-76.278
				l7.15-0.063c0.078,0.083,0.16,0.164,0.249,0.235c0.221,0.177,0.475,0.316,0.769,0.406c0.584,0.177,1.218,0.113,1.829,0.046
				c2.364-0.258,4.727-0.516,7.091-0.774l1.712-0.015l9.272,17.417c0,0,1.912,45.534,2.341,59.321
				c0.143,4.584,1.701,13.037,3.696,22.195c3.869,17.77,9.38,38.199,9.38,38.199s-0.76,1.044-6.868,0.75
				c-3.777-0.182-9.593-0.874-18.552-2.643c-0.345-0.039-0.688-0.076-1.032-0.114c-7.004-0.772-13.713-1.354-19.684-1.79
				c-0.822-0.06-1.63-0.117-2.423-0.172c-12.811-0.882-21.667-1.075-21.667-1.075S889.665,487.885,891.315,472.372z"/>
			<path style="fill:#EAC1A4;" d="M909.918,349.161c0.427-1.715-0.393-3.461-0.781-5.185c-0.098-0.436-0.116-0.886-0.089-1.341
				c3.122-0.529,6.273-1.667,8.567-2.649c4.776-2.045,14.079-4.223,19.038-1.808c3.922,1.91,2.717,8,2.52,11.852
				c-0.051,0.99-0.129,1.999,0.104,2.961c0.24,0.991,0.869,1.661,1.26,2.495c-0.437,1.501-1.154,2.925-2.32,4.217
				c-3.143,3.48-6.34,5.191-7.187,9.119c-0.227,1.054-0.295,2.258-0.136,3.71c-0.113,0.013-0.226,0.026-0.339,0.039
				c-2.172,0.252-4.344,0.504-6.516,0.756c-0.561,0.065-1.144,0.128-1.68-0.045c-0.27-0.087-0.504-0.223-0.707-0.396
				c-0.082-0.07-0.157-0.149-0.229-0.229c-0.599-0.674-0.87-1.704-0.986-2.633c-0.027-0.214-0.07-0.416-0.117-0.616
				c-0.849-3.585-4.887-5.199-7.063-8.38c-2.466-3.605-3.756-7.804-4.314-12.081c-0.01-0.073-0.019-0.146-0.028-0.219
				C909.235,348.9,909.569,349.045,909.918,349.161z"/>
			<path style="fill:#3B455A;" d="M897.06,323.666c1.623-1.075,3.494-1.967,4.48-3.676c0.765-1.327,0.878-2.969,1.636-4.299
				c1.373-2.41,4.354-3.118,6.947-3.935c6.487-2.043,9.979-4.402,16.85-1.786c4.884,1.86,11.196,2.109,15.73,4.822
				c1.893,1.133,3.504,2.953,4.826,4.98c4.58,7.023,5.68,16.899,2.697,24.224c-0.668,1.64-1.516,3.148-2.423,4.591
				c-1.814,2.887-3.756,6.439-6.967,7.852c-0.052-0.352-0.161-0.662-0.298-0.953c-0.392-0.834-1.021-1.504-1.26-2.495
				c-0.233-0.962-0.155-1.971-0.104-2.961c0.198-3.852,1.402-9.941-2.52-11.852c-4.959-2.415-14.262-0.237-19.038,1.808
				c-2.294,0.982-5.445,2.12-8.567,2.649c-0.028,0.455-0.009,0.905,0.089,1.341c0.389,1.725,1.208,3.47,0.781,5.185
				c-0.349-0.116-0.683-0.262-1.002-0.433c-2.149-1.152-3.622-3.47-4.502-5.863c-0.951-0.099-1.851-0.305-2.664-0.654
				c-4.183-1.799-7.584-8.969-7.443-13.384C894.374,326.76,895.177,324.914,897.06,323.666z"/>
		</g>
		<g id="XMLID_45_">
			<g>
				<path style="fill:#BCBEC0;" d="M812.19,236.967l-4.114,1.402c-0.655,0.223-0.931,0.991-0.617,1.716l16.961,39.148
					c0.835,1.93,0.938,3.987,0.288,5.791c-0.65,1.804-1.969,3.125-3.713,3.718L775.3,304.307c-1.746,0.596-3.722,0.399-5.567-0.556
					c-1.845-0.954-3.318-2.543-4.155-4.472l-16.53-38.16c-0.314-0.724-1.099-1.131-1.753-0.908l-4.114,1.402
					c-0.655,0.223-0.931,0.991-0.617,1.716l16.529,38.158c1.666,3.847,4.597,7.009,8.255,8.902
					c3.659,1.893,7.588,2.281,11.064,1.094l45.691-15.565c3.476-1.182,6.101-3.803,7.389-7.38c1.288-3.577,1.08-7.666-0.586-11.514
					l-16.961-39.149C813.63,237.151,812.845,236.744,812.19,236.967z"/>
				<path style="fill:#BCBEC0;" d="M953.714,539.383c11.514,3.89,24.064-2.111,28.03-13.404c2.091-5.953,1.38-12.182-1.449-17.318
					l-3.629-4.85L844.104,326.768c11.491-16.975,11.801-41.325-1.088-61.989c-7.531-12.074-18.315-20.88-30.147-25.752
					l17.689,40.835c2.587,5.974,0.284,12.365-5.115,14.201l-45.694,15.566c-5.391,1.844-11.932-1.536-14.52-7.51l-17.332-40.023
					c-7.506,16.299-6.302,37.122,4.944,55.145c12.082,19.372,32.544,30.351,52.297,30.116l137.144,183.166l1.778,2.379
					C946.535,535.782,949.815,538.065,953.714,539.383z"/>
				<path style="fill:#DBDBDB;" d="M949.597,539.031c11.514,3.89,24.064-2.111,28.03-13.404c2.091-5.953,1.38-12.183-1.449-17.318
					l-3.629-4.849L839.987,326.417c11.491-16.975,11.801-41.325-1.088-61.989c-7.532-12.074-18.315-20.88-30.147-25.752
					l17.688,40.835c2.587,5.974,0.284,12.365-5.115,14.201l-45.693,15.566c-5.391,1.844-11.933-1.536-14.52-7.51l-17.332-40.023
					c-7.506,16.299-6.302,37.122,4.944,55.145c12.082,19.372,32.544,30.351,52.297,30.116l137.144,183.166l1.778,2.379
					C942.418,535.431,945.698,537.714,949.597,539.031z"/>
				<path style="fill:#BCBEC0;" d="M810.414,237.531l-4.114,1.402c-0.655,0.223-0.931,0.991-0.617,1.716l16.961,39.147
					c0.835,1.93,0.937,3.987,0.288,5.791c-0.65,1.804-1.969,3.125-3.713,3.718l-45.694,15.567c-1.746,0.596-3.722,0.399-5.567-0.556
					c-1.845-0.954-3.318-2.544-4.155-4.472l-16.53-38.16c-0.314-0.724-1.099-1.131-1.754-0.908l-4.114,1.402
					c-0.654,0.223-0.931,0.991-0.617,1.715l16.529,38.158c1.666,3.847,4.597,7.009,8.255,8.902
					c3.659,1.893,7.588,2.282,11.064,1.094l45.69-15.565c3.476-1.183,6.101-3.804,7.389-7.38c1.288-3.576,1.08-7.665-0.586-11.513
					l-16.961-39.149C811.854,237.714,811.069,237.307,810.414,237.531z"/>
				<path style="fill:#BCBEC0;" d="M963.735,504.864L852.437,356.216c-2.063-2.756-5.682-3.565-8.042-1.799l-13.51,10.111
					c-2.36,1.766-2.603,5.466-0.54,8.222l111.298,148.648c2.063,2.756,5.682,3.565,8.042,1.799l13.51-10.111
					C965.556,511.319,965.798,507.62,963.735,504.864z"/>
				<path style="fill:#DBDBDB;" d="M939.942,532.551l-1.778-2.379C938.7,531.003,939.29,531.795,939.942,532.551z"/>
			</g>
			<polygon id="XMLID_47_" style="fill:#EAC1A4;" points="890.47,448.885 884.111,449.633 879.727,446.142 878.501,446.678 
				879.112,448.185 874.627,446.31 870.834,447.414 869.118,452.297 870.883,457.344 876.006,458.501 881.983,456.701 
				890.732,456.048 			"/>
			<polygon id="XMLID_46_" style="fill:#3B455A;" points="886.605,446.513 921.116,441.12 941.825,388.577 965.192,405.327 
				944.656,456.127 933.311,465.183 883.653,459.099 			"/>
		</g>
		<g>
			<g>
				<polygon style="fill:#2D3544;" points="580.223,673.391 584.142,680.117 583.652,684.44 577.774,685.401 568.957,680.117 
					571.896,661.86 580.223,659.458 				"/>
				<path style="fill:#BCBEC0;" d="M584.142,612.376c0,0-9.307,16.815,3.429,27.384c12.736,10.57,34.778,27.385,34.778,27.385
					l-41.636-9.128l-2.939,14.413c0,0,63.189,20.658,64.658,19.217s17.144-14.893,17.144-14.893l-33.799-72.545l-37.227,4.324
					L584.142,612.376z"/>
			</g>
			<g>
				<path style="fill:#F7F7F7;" d="M683.073,601.803c-2.223-2.333-4.327-4.764-6.26-7.307l0,0l-11.616-10.866l-15.554-33.336
					l2.494-21.612c0,0,2.543-2.591,5.706-5.703c-2.998-4.228-6.504-7.039-13.544-7.784c-29.644-3.137-27.964-1.37-38.043,10.647
					c-4.053,4.832-11.539,18.696-14.126,24.354c-3.134,6.853-6.183,13.742-8.997,20.723c-3.14,7.79-5.993,15.694-8.334,23.746
					c-0.26,0.894-1.091,3.374-1.98,6.371c-1.68,5.666-3.563,13.179-2.193,15.352c0.713,1.811,2.595,3.742,7.148,4.636
					c9.797,1.921,17.634,1.921,28.41-3.363c10.776-5.285,28.629-1.533,28.629-1.533v-0.001c2.838,0.763,5.804,1.515,8.964,2.206
					c22.968,5.025,34.839-8.772,38.563-11.277c3.257-2.191,0.734-5.247,0.734-5.247L683.073,601.803z"/>
			</g>
			<path style="fill:#EAC1A4;" d="M720.39,534.829c-0.01-0.23,2.026-1.921,2.289-2.189c0.809-0.824,1.563-1.72,2.027-2.78
				c0.49-1.118,0.631-2.349,0.767-3.559c0.082-0.729,0.164-1.458,0.246-2.188c0.031-0.277,0.066-0.565,0.215-0.802
				c0.134-0.213,0.347-0.364,0.557-0.506c1.08-0.731,2.222-1.372,3.412-1.915c0.013,1.31-0.72,6.66,0.95,6.807
				c3.812,0.335,7.702,0.1,11.528,0.055c0.279-0.003,0.577-0.001,0.808,0.151c0.171,0.113,0.281,0.293,0.38,0.469
				c1.254,2.22,1.752,4.843,1.397,7.357c-0.022,0.158-0.05,0.321-0.139,0.455c-0.105,0.158-0.282,0.254-0.451,0.343
				c-2.316,1.215-4.693,2.277-7.081,3.343c-0.884,0.394-1.572,0.996-2.449,1.402c-0.428,0.198-1.636,0.996-2.116,0.931l-10.272-1.39
				L720.39,534.829z"/>
			<polygon style="fill:#F7F7F7;" points="657.316,523.077 667.867,540.269 721.354,532.107 725.643,542.955 659.836,564.279 
				615.62,518.938 			"/>
			<polygon style="fill:#2D3544;" points="672.249,676.273 682.109,682.72 682.109,687.153 673.481,688.764 659.924,682.317 
				661.156,676.273 			"/>
			<g>
				<path style="fill:#EAC1A4;" d="M637.967,516.285c-3.992,0.475-7.984,0.949-11.975,1.424c-0.736-3.061-1.222-6.18-1.452-9.317
					c-3.51-0.41-7.655-1.271-8.981-4.485c-0.418-1.012-0.477-2.127-0.53-3.218c-0.222-4.51-0.445-9.019-0.667-13.529
					c-0.077-1.56-0.147-3.167,0.393-4.636c0.948-2.578,3.559-4.186,6.142-5.231c6.59-2.667,14.392-2.844,20.71,0.397
					c1.681,0.863,3.281,1.992,4.293,3.566c1.561,2.427,1.503,5.492,1.394,8.36c-0.101,2.647-0.202,5.293-0.302,7.94
					c-0.116,3.044-0.484,6.556-3.064,8.253c-1.37,0.901-3.179,1.121-4.344,2.265C637.527,510.089,638.644,513.511,637.967,516.285z"
					/>
			</g>
			<path style="fill:#BCBEC0;" d="M624.87,618.096l60.177-27.34l13.715,17.295l-23.512,70.623l-15.675-1.922l4.409-42.278
				c0,0-13.226,11.05-36.738,10.089c-10.776-10.569-10.776-10.089-10.776-10.089L624.87,618.096z"/>
			<g>
				<ellipse style="fill:#3B455A;" cx="744.913" cy="547.267" rx="49.131" ry="48.188"/>
				<g>
					<g>
						<path style="fill:#F4F4F2;" d="M734.803,572.756c-14.353-5.477-21.462-21.328-15.878-35.406
							c5.584-14.077,21.746-21.05,36.099-15.573c14.353,5.477,21.462,21.328,15.878,35.406
							C765.318,571.261,749.156,578.233,734.803,572.756z"/>
					</g>
					<path style="opacity:0.1;" d="M749.785,566.325c5.326-0.391,10.699-2.227,14.471-5.936c-1.658,4.774-5.836,8.629-10.796,9.961
						c-1.685,0.452-3.433,0.628-5.176,0.74c-1.845,0.119-3.707,0.169-5.537-0.092c-4.93-0.702-9.449-3.779-11.843-8.063
						c0.784,1.388,6.25,2.373,7.608,2.616C742.223,566.215,746.013,566.602,749.785,566.325z"/>
				</g>
			</g>
			<polygon style="fill:#F7F7F7;" points="721.519,569.721 679.733,559.59 657.699,522.904 642.178,516.245 654.469,575.867 
				724.153,582.296 			"/>
			<polygon style="fill:#3B455A;" points="638.833,478.693 618.383,484.315 619.031,501.692 604.745,496.196 600.85,466.264 
				643.38,446.435 661.36,468.174 645.607,482.271 			"/>
			<path style="fill:#EAC1A4;" d="M716.878,574.089c-0.01-0.23,2.026-1.921,2.289-2.189c0.809-0.824,1.563-1.72,2.027-2.78
				c0.489-1.119,0.631-2.349,0.766-3.559c0.082-0.729,0.164-1.458,0.246-2.188c0.031-0.277,0.066-0.565,0.215-0.802
				c0.134-0.213,0.347-0.364,0.557-0.506c1.08-0.731,2.222-1.372,3.412-1.915c0.013,1.31-0.72,6.66,0.95,6.807
				c3.812,0.335,7.702,0.1,11.528,0.055c0.279-0.003,0.577-0.001,0.808,0.151c0.171,0.113,0.281,0.293,0.38,0.469
				c1.254,2.22,1.752,4.843,1.397,7.357c-0.022,0.158-0.05,0.321-0.139,0.455c-0.105,0.158-0.282,0.254-0.451,0.343
				c-2.316,1.215-4.693,2.277-7.081,3.343c-0.884,0.394-1.572,0.996-2.449,1.402c-0.428,0.198-1.636,0.996-2.116,0.93l-10.272-1.39
				L716.878,574.089z"/>
		</g>
		<g>
			<path style="fill:#C9C9C9;" d="M773.678,678.158l-26.583-26.072c-0.968-0.949-0.968-2.502,0-3.451l0.245-0.24
				c0.967-0.949,2.551-0.949,3.518,0l26.583,26.073c0.968,0.949,0.968,2.502,0,3.451l-0.245,0.24
				C776.229,679.107,774.646,679.107,773.678,678.158z"/>
			<path style="fill:#ADADAD;" d="M747.097,648.656c-0.855,1.071-0.222,3.214,1.489,4.892l23.602,23.149
				c1.71,1.677,3.895,2.299,4.987,1.46L747.097,648.656z"/>
		</g>
		<g>
			<path style="fill:#C9C9C9;" d="M752.263,678.158l26.583-26.072c0.968-0.949,0.968-2.502,0-3.451l-0.245-0.24
				c-0.967-0.949-2.551-0.949-3.518,0L748.5,674.467c-0.967,0.949-0.967,2.502,0,3.451l0.245,0.24
				C749.712,679.107,751.295,679.107,752.263,678.158z"/>
			<path style="fill:#ADADAD;" d="M778.844,648.656c0.855,1.071,0.222,3.214-1.489,4.892l-23.602,23.149
				c-1.71,1.677-3.895,2.299-4.987,1.46L778.844,648.656z"/>
		</g>
		<g>
			<path style="fill:#C9C9C9;" d="M788.825,686.131h-52.156c-2.652,0-4.822-2.17-4.822-4.822l0,0c0-2.652,2.17-4.821,4.822-4.821
				h52.156c2.652,0,4.821,2.17,4.821,4.821l0,0C793.646,683.961,791.477,686.131,788.825,686.131z"/>
			<path style="fill:#ADADAD;" d="M731.871,681.648c0.243,2.495,3.136,4.483,6.648,4.483h48.456c3.511,0,6.405-1.988,6.648-4.483
				H731.871z"/>
		</g>
		<g>
			<g>
				<g>
					<path style="fill:#D7E8F4;" d="M363.616,466.602c-1.77-0.063-3.495,0.094-5.146,0.441
						c-1.476-10.868-11.12-19.457-23.155-19.887c-8.127-0.29-15.47,3.21-20.114,8.817c-2.3-5.158-7.744-8.759-14.064-8.7
						c-6.991,0.066-12.826,4.589-14.483,10.668c-2.395-2.39-5.746-3.936-9.515-4.071c-7.622-0.272-14.041,5.315-14.337,12.48
						c-0.006,0.14-0.005,0.279-0.006,0.418c-1.343-0.32-2.741-0.516-4.181-0.568c-11.055-0.395-20.365,7.709-20.794,18.101
						c-0.352,8.512,5.367,15.916,13.522,18.533c-0.416,1.536-0.673,3.134-0.741,4.781c-0.521,12.605,9.929,23.212,23.339,23.691
						c6.741,0.241,12.944-2.127,17.516-6.139c0.71,7.276,7.252,12.94,15.165,12.865c7.668-0.072,13.944-5.507,14.842-12.475
						c3.501,4.271,8.916,7.104,15.098,7.325c8.987,0.321,16.82-4.974,19.667-12.548c1.905,1.055,4.107,1.694,6.472,1.779
						c7.622,0.272,14.041-5.315,14.337-12.48c0.134-3.245-1.014-6.254-3.015-8.604c5.115-3.246,8.576-8.657,8.833-14.895
						C383.286,475.741,374.672,466.997,363.616,466.602z M352.161,501.393c-0.027-0.028-0.052-0.057-0.078-0.084
						c0.033,0.02,0.067,0.038,0.1,0.058C352.176,501.375,352.168,501.384,352.161,501.393z"/>
				</g>
			</g>
			<g>
				<g>
					<path style="opacity:0.2;fill:#587BC9;" d="M372.909,469.132c1.697,2.896,2.605,6.249,2.458,9.794
						c-0.258,6.239-3.718,11.649-8.833,14.895c2.001,2.35,3.149,5.359,3.015,8.604c-0.296,7.165-6.715,12.752-14.337,12.479
						c-2.365-0.084-4.567-0.724-6.472-1.779c-2.847,7.574-10.681,12.87-19.667,12.549c-6.182-0.221-11.597-3.055-15.098-7.325
						c-0.898,6.969-7.174,12.404-14.842,12.476c-2.318,0.022-4.517-0.452-6.487-1.311c2.345,5.061,7.733,8.577,13.977,8.518
						c7.668-0.072,13.943-5.507,14.842-12.476c3.501,4.271,8.916,7.104,15.098,7.325c8.987,0.321,16.82-4.974,19.667-12.549
						c1.905,1.055,4.107,1.694,6.472,1.779c7.622,0.272,14.041-5.315,14.337-12.479c0.134-3.245-1.014-6.254-3.015-8.604
						c5.115-3.246,8.576-8.657,8.833-14.895C383.154,478.929,379.103,472.52,372.909,469.132z"/>
				</g>
			</g>
		</g>
		<g>
			<g>
				<g>
					<path style="fill:#D7E8F4;" d="M455.606,134.512c-4.022-0.144-7.94,0.213-11.692,1.002
						c-3.354-24.693-25.267-44.207-52.611-45.184c-18.465-0.659-35.149,7.294-45.701,20.032
						c-5.225-11.72-17.596-19.901-31.954-19.767c-15.884,0.149-29.141,10.425-32.907,24.237c-5.442-5.431-13.056-8.943-21.618-9.249
						c-17.318-0.619-31.902,12.076-32.574,28.355c-0.013,0.318-0.011,0.634-0.014,0.95c-3.051-0.727-6.227-1.173-9.5-1.29
						c-25.118-0.897-46.271,17.515-47.246,41.126c-0.799,19.34,12.194,36.161,30.724,42.109c-0.946,3.489-1.529,7.12-1.683,10.862
						c-1.183,28.64,22.559,52.74,53.027,53.828c15.317,0.547,29.411-4.831,39.797-13.949c1.614,16.533,16.478,29.4,34.456,29.231
						c17.422-0.163,31.681-12.512,33.722-28.345c7.953,9.703,20.257,16.141,34.303,16.643c20.418,0.729,38.215-11.301,44.685-28.511
						c4.328,2.397,9.332,3.849,14.705,4.041c17.318,0.619,31.902-12.076,32.574-28.354c0.305-7.372-2.304-14.21-6.85-19.548
						c11.622-7.375,19.484-19.669,20.07-33.843C500.296,155.277,480.724,135.409,455.606,134.512z M429.579,213.559
						c-0.061-0.063-0.118-0.129-0.178-0.192c0.075,0.045,0.152,0.087,0.228,0.132C429.612,213.519,429.595,213.538,429.579,213.559z
						"/>
				</g>
			</g>
			<g style="opacity:0.2;">
				<g>
					<path style="fill:#587BC9;" d="M476.718,140.26c3.855,6.579,5.918,14.197,5.585,22.253
						c-0.585,14.174-8.448,26.468-20.07,33.843c4.546,5.339,7.155,12.176,6.85,19.548c-0.672,16.279-15.256,28.973-32.574,28.354
						c-5.373-0.192-10.377-1.645-14.705-4.041c-6.47,17.21-24.267,29.241-44.685,28.511c-14.046-0.502-26.35-6.94-34.304-16.643
						c-2.041,15.834-16.3,28.182-33.722,28.345c-5.267,0.049-10.262-1.027-14.74-2.979c5.327,11.499,17.569,19.488,31.757,19.354
						c17.422-0.163,31.68-12.512,33.722-28.345c7.954,9.703,20.258,16.141,34.303,16.643c20.418,0.729,38.215-11.302,44.685-28.511
						c4.328,2.397,9.331,3.849,14.705,4.041c17.318,0.619,31.902-12.076,32.574-28.354c0.305-7.372-2.304-14.21-6.85-19.548
						c11.622-7.374,19.485-19.669,20.07-33.843C499.997,162.519,490.794,147.957,476.718,140.26z"/>
				</g>
			</g>
		</g>
		<g>
			<polygon style="fill:#EBCEB1;" points="314.293,482.423 324.334,486.639 325.911,481.155 319.528,476.294 321.203,474.149 
				312.271,471.899 310.038,477.313 			"/>
			<path style="fill:#7DB5DB;" d="M315.492,471.346l-4.855,10.451c-0.853,1.62-35.792-17.452-38.649-19.405
				c-6.29-4.3-18.968-10.822-18.968-10.822c-5.596-9.14-12.32-30.175-13.856-37.911c-0.619-3.117,2.382-8.788,3.124-11.8
				c0.941-3.819,5.859-5.089,8.423-5.194c5.258-0.216,15.895-15.296,19.86-10.813c1.424,1.61-2.096,40.299-0.943,44.659
				C271.077,435.987,316.515,468.686,315.492,471.346z"/>
		</g>
		<g>
			<g>
				<g>
					<path style="fill:#D7E8F4;" d="M244.518,330.289c-2.695-0.096-5.32,0.143-7.834,0.671
						c-2.247-16.544-16.928-29.619-35.249-30.273c-12.372-0.442-23.549,4.887-30.619,13.421
						c-3.501-7.853-11.789-13.334-21.409-13.244c-10.642,0.1-19.524,6.985-22.047,16.239c-3.646-3.638-8.748-5.992-14.484-6.197
						c-11.603-0.414-21.374,8.091-21.825,18.998c-0.009,0.213-0.007,0.425-0.009,0.637c-2.044-0.487-4.172-0.786-6.365-0.864
						c-16.829-0.601-31.002,11.735-31.655,27.554c-0.535,12.958,8.17,24.228,20.585,28.213c-0.634,2.338-1.024,4.77-1.127,7.278
						c-0.792,19.189,15.114,35.335,35.528,36.064c10.262,0.367,19.705-3.237,26.664-9.346c1.081,11.077,11.04,19.698,23.085,19.585
						c11.673-0.109,21.226-8.383,22.594-18.991c5.329,6.501,13.572,10.815,22.983,11.151c13.68,0.489,25.604-7.572,29.939-19.102
						c2.9,1.606,6.252,2.579,9.852,2.708c11.603,0.414,21.374-8.091,21.825-18.997c0.204-4.939-1.543-9.52-4.589-13.097
						c7.787-4.941,13.055-13.178,13.447-22.675C274.46,344.201,261.347,330.89,244.518,330.289z M227.081,383.25
						c-0.041-0.042-0.079-0.086-0.12-0.129c0.05,0.03,0.102,0.059,0.153,0.088C227.103,383.223,227.091,383.236,227.081,383.25z"/>
				</g>
			</g>
			<g>
				<g>
					<path style="opacity:0.2;fill:#587BC9;" d="M258.664,334.14c2.583,4.408,3.965,9.512,3.742,14.909
						c-0.392,9.497-5.66,17.733-13.447,22.674c3.046,3.577,4.794,8.158,4.589,13.097c-0.45,10.906-10.221,19.412-21.824,18.997
						c-3.6-0.129-6.952-1.102-9.852-2.708c-4.335,11.53-16.259,19.591-29.939,19.102c-9.411-0.336-17.654-4.65-22.983-11.151
						c-1.368,10.608-10.921,18.882-22.593,18.991c-3.529,0.033-6.876-0.688-9.875-1.996c3.569,7.704,11.771,13.057,21.277,12.967
						c11.673-0.109,21.226-8.383,22.593-18.991c5.329,6.501,13.573,10.815,22.983,11.151c13.68,0.488,25.604-7.572,29.939-19.102
						c2.9,1.606,6.252,2.579,9.852,2.708c11.603,0.415,21.374-8.091,21.825-18.997c0.204-4.94-1.543-9.52-4.589-13.097
						c7.787-4.941,13.055-13.178,13.447-22.674C274.26,349.054,268.094,339.297,258.664,334.14z"/>
				</g>
			</g>
		</g>
	</g>
</g>
</svg>
