<?xml version="1.0" standalone="no"?><!DOCTYPE svg PUBLIC "-//W3C//DTD SVG 1.1//EN" "http://www.w3.org/Graphics/SVG/1.1/DTD/svg11.dtd"><svg t="1776096972680" class="icon" viewBox="0 0 1024 1024" version="1.1" xmlns="http://www.w3.org/2000/svg" p-id="31703" xmlns:xlink="http://www.w3.org/1999/xlink" width="200" height="200"><path d="M256 362.666667h512a42.666667 42.666667 0 0 1 42.666667 42.666666v170.666667a42.666667 42.666667 0 0 1-42.666667 42.666667H256a42.666667 42.666667 0 0 1-42.666667-42.666667v-170.666667a42.666667 42.666667 0 0 1 42.666667-42.666666z m42.666667 42.666666a21.333333 21.333333 0 1 0 0 42.666667 21.333333 21.333333 0 0 0 0-42.666667z m426.666666 0a21.333333 21.333333 0 1 0 0 42.666667 21.333333 21.333333 0 0 0 0-42.666667z m0 128a21.333333 21.333333 0 1 0 0 42.666667 21.333333 21.333333 0 0 0 0-42.666667z m-426.666666 0a21.333333 21.333333 0 1 0 0 42.666667 21.333333 21.333333 0 0 0 0-42.666667z m298.666666-128v170.666667h42.666667v-170.666667h-42.666667z m-90.453333 170.666667H554.666667l-75.776-170.538667L440.768 405.333333 362.666667 576h47.296l49.664-110.869333L506.88 576zM234.666667 234.666667v53.333333a32 32 0 0 1-64 0v-85.333333c0-8.832 3.584-16.853333 9.386666-22.613334 5.76-5.802667 13.781333-9.386667 22.613334-9.386666h85.333333a32 32 0 0 1 0 64H234.666667z m618.666666-32v85.333333a32 32 0 0 1-64 0V234.666667h-53.333333a32 32 0 0 1 0-64h85.333333A32 32 0 0 1 853.333333 202.666667z m-9.386666 598.613333c-5.76 5.802667-13.781333 9.386667-22.613334 9.386667h-85.333333a32 32 0 0 1 0-64H789.333333v-53.333334a32 32 0 0 1 64 0v85.333334c0 8.832-3.584 16.853333-9.386666 22.613333zM234.666667 746.666667h53.333333a32 32 0 0 1 0 64h-85.333333A32 32 0 0 1 170.666667 778.666667v-85.333334a32 32 0 0 1 64 0V746.666667z" fill="#2A2A37" p-id="31704"></path></svg>