<?xml version="1.0" standalone="no"?><!DOCTYPE svg PUBLIC "-//W3C//DTD SVG 1.1//EN" "http://www.w3.org/Graphics/SVG/1.1/DTD/svg11.dtd"><svg t="1776096894865" class="icon" viewBox="0 0 1024 1024" version="1.1" xmlns="http://www.w3.org/2000/svg" p-id="26298" xmlns:xlink="http://www.w3.org/1999/xlink" width="200" height="200"><path d="M297.519626 431.058526c-29.482475 28.856211-55.017034 53.363372-79.983659 78.432327-19.755949 19.826558-38.655392 40.502459-58.233286 60.502979-19.377326 19.808138-40.562834 21.8701-57.029878 6.074346-16.394389-15.722076-15.487739-37.610596 3.610224-57.434084 58.71424-60.939931 117.475552-121.841999 176.980807-182.006264 10.840906-10.960633 15.156188-21.898753 14.94334-36.950564-0.686638-48.38908 0.437975-96.812953-0.518816-145.193847-0.456395-23.096021 9.100262-38.47222 28.119431-50.120514 34.380018-21.063735 72.647577-26.946722 111.626333-27.489074 57.923224-0.812505 115.907846-0.463558 173.800371 1.404999 32.547277 1.052982 64.275909 8.435113 92.50688 26.430976 17.272385 11.013845 26.848485 25.116027 26.386974 47.060829-1.066285 50.29243-0.926092 100.639095 0.337691 150.917198 0.252757 10.123568 5.207605 22.397103 12.158924 29.722952 57.367569 60.402695 115.828029 119.754454 173.60799 179.763177 7.321756 7.603165 15.440667 16.316617 18.262946 25.956162 4.898567 16.724917 1.812275 32.954553-15.421224 43.051515-16.956184 9.928117-31.895431 5.942339-44.917002-6.982018-20.268626-20.114107-40.10337-40.668235-59.994396-61.169151-22.562878-23.255657-44.917002-46.713928-67.524906-69.931722-3.375887-3.464915-7.626701-6.085602-14.737656-11.661597-0.846274 12.640901-1.978051 21.767769-1.986237 30.898731-0.128937 131.829468-0.672312 263.665075 0.354064 395.486356 0.203638 26.118867-10.951423 41.707914-31.951713 53.527101-29.629831 16.679891-62.213947 23.14514-95.309716 23.989367-58.546418 1.499144-117.191072 1.471514-175.741583 0.014326-35.036981-0.86981-69.382207-7.448646-100.412944-26.027793-19.839861-11.870352-29.236881-27.850301-29.144784-51.554166 0.539282-133.742027 0.23536-267.480984 0.211824-401.225057C297.519626 449.749214 297.519626 442.954461 297.519626 431.058526zM514.007215 632.211872c-17.201777 0-34.404578 0-51.602262 0-57.83829 0-57.83829-0.004093-85.089957 50.531883-0.911766 1.679245-1.647523 3.450589-2.509147 5.15337-6.650467 13.072737-2.260483 19.590174 11.69639 23.245424 85.534072 22.408359 170.889065 22.068621 256.344343-0.295735 12.125155-3.173273 16.385179-10.236132 10.755971-20.974707-9.133008-17.421788-18.814508-34.668591-29.884634-50.873668-2.957355-4.321422-11.783371-6.332219-17.978467-6.457062C575.17125 631.903857 544.589744 632.247688 514.007215 632.211872zM515.838933 405.617088c0 0.328481 0.007163 0.653893 0.007163 0.978281 20.977777 0 41.963741 0.053212 62.949704-0.007163 34.6778-0.105401 37.530778-2.104941 50.212612-34.374902 4.689812-11.93175 1.693572-19.022239-11.585873-22.339798-69.084425-17.269315-138.088008-17.473977-206.972888 0.469698-5.354961 1.396813-12.322653 6.118348-13.846356 10.819416-3.803629 11.721973 20.777209 43.968397 33.443693 44.251853C458.62793 406.062226 487.238548 405.617088 515.838933 405.617088zM674.399205 508.837984c0.229221 0 0.452301 0 0.680499 0 0-32.463366 0.191358-64.926732-0.12382-97.384981-0.090051-8.741082 0.452301-20.005636-14.295588-14.685467-17.246803 6.226818-31.359218 26.987654-31.403221 45.805232-0.106424 42.009789 0.670266 84.039022-0.315178 126.025275-0.488117 20.780279 9.298783 35.054377 23.837918 47.281863 4.042059 3.391237 9.891278 4.63967 14.912641 6.870478 2.231831-5.508457 6.302543-10.988262 6.405897-16.531512C674.718477 573.765739 674.399205 541.303396 674.399205 508.837984zM353.381911 508.206604c0.248663 0 0.494257 0 0.741897 0 0 33.032324-0.234337 66.067718 0.24457 99.088786 0.074701 5.139044 3.373841 10.238179 5.180999 15.352663 5.076622-1.963725 11.125385-2.774183 15.046694-6.099928 14.431687-12.244882 24.046672-26.384927 23.3805-47.313585-1.304715-40.615023-1.562589-81.344656 0.144286-121.926934 0.86674-20.485567-6.764054-34.211173-22.562878-44.691875-4.943592-3.272533-11.224646-4.516874-16.893762-6.690376-1.762133 5.66707-4.957919 11.31265-5.045923 17.001209C353.124038 444.680778 353.381911 476.449319 353.381911 508.206604z" fill="#231815" p-id="26299"></path></svg>