<?xml version="1.0" standalone="no"?><!DOCTYPE svg PUBLIC "-//W3C//DTD SVG 1.1//EN" "http://www.w3.org/Graphics/SVG/1.1/DTD/svg11.dtd"><svg t="1776096163704" class="icon" viewBox="0 0 1024 1024" version="1.1" xmlns="http://www.w3.org/2000/svg" p-id="25292" xmlns:xlink="http://www.w3.org/1999/xlink" width="200" height="200"><path d="M675.435303 833.887105 454.607872 833.727469c-77.731362 0-116.727515-34.733059-140.008754-55.485709-3.127224-2.7486-6.074346-5.417383-8.962116-7.766894-11.929704-9.759271-22.385846-17.645892-29.475312-22.86373-87.092567-4.102435-100.535741-48.39522-100.535741-75.321476l0-211.865315c0-38.875402 25.25315-80.221066 94.321202-87.231737 13.104459-44.173059 47.977711-60.823274 78.747505-60.823274l221.206054 0c62.177108 0 91.533716 35.370579 112.962771 61.181431 3.645017 4.381797 7.328919 8.842389 11.292184 13.264095 18.442024 20.632923 45.189202 49.67026 45.189202 49.67026l10.794857 11.710716 0 35.808554 26.248827 0 0-59.190077 94.620008 0c53.135174 0 88.844467 35.688827 88.844467 88.825025L959.853028 733.948975c0 84.244706-43.416835 95.835695-90.318028 95.835695-49.232285 0-79.743182-13.343913-79.743182-79.743182 0-7.328919-1.27504-9.838066-1.27504-9.838066-0.477884 0.677429-5.676279-1.991354-25.770943-1.991354-10.894118 0-16.012695 1.553379-17.884322 2.350534 0.079818 0.517793-0.099261 1.951445-0.099261 4.102435C744.762251 815.0859 701.186803 833.887105 675.435303 833.887105zM257.181407 663.327544c5.436826 1.393743 15.454994 3.02694 32.502251 3.02694l12.647041 0 10.456143 7.169283c0 0 19.378349 13.304004 44.452421 33.777291 3.76372 3.066849 7.587815 6.452969 11.611455 10.037611 20.094664 17.884322 39.074947 34.812877 85.758176 34.812877l208.240765 0c0.199545-1.991354 0.338714-4.461615 0.338714-7.488555 0-20.632923 7.169283-88.027869 99.559507-88.027869 88.48631 0 108.063181 49.352011 108.60144 91.573625 1.732457 0 4.043083-0.039909 6.313799-0.079818 0.338714-3.266393 0.617054-7.886621 0.617054-14.179954L878.280174 513.639337c0-4.381797-0.63752-6.492878-0.896416-7.130398-0.019443 0.517793-2.330068-0.119727-6.373151-0.119727L857.964476 506.389212l0 59.190077L668.563802 565.579289l0-85.558631c-9.639544-10.555403-23.958668-26.248827-35.210943-38.835494-4.620227-5.13802-8.981559-10.395768-13.243629-15.534811-19.995403-24.097838-27.424606-31.706119-50.207495-31.706119L348.83485 393.944234c-0.378623 1.155313-2.668783 6.970762-2.668783 19.557428l0 45.328371-45.069475-4.779863c-0.557702-0.039909-4.301979-0.358157-9.639544-0.358157-21.230534 0-32.701796 4.660136-34.932604 6.890944L257.181407 663.327544z" fill="#231815" p-id="25293"></path><path d="M64.044642 445.51682 64.044642 533.00029 64.044642 554.117237 64.044642 641.600707 127.395482 704.950524 127.395482 554.117237 127.395482 533.00029 127.395482 382.167003Z" fill="#231815" p-id="25294"></path><path d="M336.033289 182.26516l253.400291 0 0 51.28299-253.400291 0 0-51.28299Z" fill="#231815" p-id="25295"></path><path d="M387.819746 233.54815l149.8284 0 0 83.692121-149.8284 0 0-83.692121Z" fill="#231815" p-id="25296"></path><path d="M127.395482 506.912122l53.082986 0 0 76.476789-53.082986 0 0-76.476789Z" fill="#231815" p-id="25297"></path></svg>