<?xml version="1.0" standalone="no"?><!DOCTYPE svg PUBLIC "-//W3C//DTD SVG 1.1//EN" "http://www.w3.org/Graphics/SVG/1.1/DTD/svg11.dtd"><svg t="1776095046870" class="icon" viewBox="0 0 1024 1024" version="1.1" xmlns="http://www.w3.org/2000/svg" p-id="12544" xmlns:xlink="http://www.w3.org/1999/xlink" width="200" height="200"><path d="M727.392 112C829.344 112 912 194.656 912 296.608v430.784C912 829.344 829.344 912 727.392 912H296.608C194.656 912 112 829.344 112 727.392V296.608C112 194.656 194.656 112 296.608 112h430.784z m1.664 66.672H294.944a116.272 116.272 0 0 0-116.272 116.272v434.112a116.272 116.272 0 0 0 116.272 116.272h434.112a116.272 116.272 0 0 0 116.272-116.272V294.944a116.272 116.272 0 0 0-116.272-116.272z" fill="#000000" fill-opacity=".85" p-id="12545"></path><path d="M280 376a56 56 0 1 0 112 0 56 56 0 0 0-112 0z m460.368 251.568c-8.208-8.608-12.688-14.096-44.752-18.64-43.36-6.144-105.84-8.32-123.232-8-22.8 0.432-94.4 3.712-121.68 6.768a26.496 26.496 0 0 1 0.08-3.632c5.12-51.68-5.456-81.696-12.784-104.176-7.024-21.536-31.456-51.808-33.6-54.048-5.968-6.272-19.408-18.8-38.08-11.744-18.656 7.04-33.6 24.272-38.08 32.112-2.976 5.216 20.832 89.824 71.408 253.792h338.56c6.912-55.872 7.632-86.688 2.16-92.432z" fill="#000000" fill-opacity=".85" p-id="12546"></path></svg>