<?xml version="1.0" standalone="no"?><!DOCTYPE svg PUBLIC "-//W3C//DTD SVG 1.1//EN" "http://www.w3.org/Graphics/SVG/1.1/DTD/svg11.dtd"><svg t="1776095928134" class="icon" viewBox="0 0 1024 1024" version="1.1" xmlns="http://www.w3.org/2000/svg" p-id="17423" xmlns:xlink="http://www.w3.org/1999/xlink" width="200" height="200"><path d="M930.133333 597.376a427.050667 427.050667 0 0 1-358.442666 337.152v-86.4A341.76 341.76 0 0 0 842.538667 597.333333l87.552 0.042667z m-748.714666 0a341.76 341.76 0 0 0 266.538666 249.984v86.528a427.093333 427.093333 0 0 1-354.133333-336.512h87.594667zM767.957333 469.333333v85.333334h-42.666666a170.666667 170.666667 0 0 0-170.453334 162.133333L554.666667 725.333333v42.666667h-85.333334v-42.666667a170.666667 170.666667 0 0 0-162.133333-170.453333L298.666667 554.666667H256v-85.333334h512z m-256-384c221.269333 0 403.2 168.405333 424.576 384h-85.845333A341.418667 341.418667 0 0 0 173.226667 469.333333H87.466667c21.418667-215.594667 203.306667-384 424.533333-384z" fill="#000000" p-id="17424"></path></svg>