<?xml version="1.0" standalone="no"?><!DOCTYPE svg PUBLIC "-//W3C//DTD SVG 1.1//EN" "http://www.w3.org/Graphics/SVG/1.1/DTD/svg11.dtd"><svg t="1776094956135" class="icon" viewBox="0 0 1024 1024" version="1.1" xmlns="http://www.w3.org/2000/svg" p-id="9662" xmlns:xlink="http://www.w3.org/1999/xlink" width="200" height="200"><path d="M213.284571 742.253714c0-41.344-0.731429-82.688 0-124.032 0.731429-43.52 46.902857-73.618286 87.990858-57.289143 23.625143 9.435429 42.898286 22.491429 41.453714 53.668572-1.097143 28.653714 2.176 57.654857 2.176 86.674286 0 17.042286 7.990857 23.936 24.356571 23.570285 20.736-0.365714 41.453714 0 61.805715-0.731428 25.088-1.097143 53.083429-29.732571 53.814857-54.4 0.731429-23.204571-0.365714-46.409143 0.365714-69.266286 0.731429-17.755429-5.814857-24.649143-24.356571-25.380571-49.810286-1.810286-49.810286-2.541714-49.444572-52.571429 0-41.344 0-82.688-1.097143-124.032-0.365714-19.931429 6.912-27.556571 27.629715-27.556571 54.546286 0 45.458286 2.907429 46.537142-46.774858 0.365714-14.153143 0-27.922286 0-42.057142-0.365714-42.806857-23.990857-65.645714-67.986285-65.28-10.898286 0-21.449143 0.365714-32.365715 0-32-0.731429-37.796571 5.065143-36.717714 36.973714 1.097143 38.070857-18.176 55.844571-54.893714 48.603428-7.643429-1.462857-14.555429-8.704-20.004572-14.884571-3.638857-3.986286-5.083429-10.861714-5.083428-16.310857 0-54.4-1.097143-109.165714 1.462857-163.547429 1.444571-30.098286 13.44-36.260571 42.532571-34.084571 23.625143 1.810286 33.444571 14.134857 34.907429 36.626286 3.620571 49.682286 3.986286 49.316571 52.717714 50.761142 27.611429 0.731429 51.986286 0.731429 73.435429-23.936 20.717714-23.936 64.365714-21.028571 84.717714 2.907429 14.189714 16.676571 29.805714 22.125714 49.810286 21.028571 5.814857-0.365714 11.629714 0.365714 17.462857 0.365715 48.347429 0 48.347429 0 52.352-47.140572 2.541714-28.288 14.537143-40.612571 39.625143-40.265143 29.44 0.731429 39.625143 9.801143 40.356571 40.996572 1.097143 48.585143 1.462857 97.536 0.365715 146.139428-0.731429 32.64-13.458286 43.885714-43.995429 43.52-22.546286 0-34.541714-14.884571-35.986286-43.885714-2.56-45.696-2.56-45.696-49.462857-45.696-24.722286 0-49.078857-2.541714-68.352 19.931429-13.074286 15.616-21.449143 30.116571-20.352 50.779428 1.097143 18.870857 1.097143 38.089143 0 56.941715-1.462857 20.297143 7.277714 27.922286 27.264 28.653714 47.634286 1.810286 48 2.541714 47.634286 51.492571 0 43.885714-1.097143 87.405714-1.097143 131.273143 0 18.139429-6.180571 24.667429-25.453714 22.125714-43.264-5.449143-48.347429 0.365714-48.347429 44.251429 0 15.579429-0.365714 31.542857 0.365714 47.122286 1.462857 29.019429 29.074286 56.210286 57.435429 56.941714 18.907429 0.365714 38.180571-0.365714 57.088 0.365714 18.176 0.731429 26.550857-4.717714 26.185143-25.380571-0.365714-33.737143 0.731429-67.821714 6.893714-100.461714 5.467429-28.653714 37.449143-46.061714 66.56-42.057143 36.333714 5.065143 57.782857 23.936 58.88 57.654857 1.462857 54.4 0.731429 109.165714 0.731429 163.547428 0 33.737143-1.462857 67.821714 0.365714 101.540572 2.56 49.316571-28.361143 65.28-65.810286 70.710857-34.176 4.717714-65.444571-28.288-66.907428-67.437714a904.265143 904.265143 0 0 1 0-76.891429c0.731429-18.852571-6.546286-27.556571-25.801143-27.190857-37.449143 0.731429-74.898286-5.796571-105.453714 28.288-17.444571 19.565714-56.356571 17.408-74.898286-2.56-31.634286-34.432-70.893714-26.093714-109.074286-24.283429-7.625143 0.365714-19.254857 15.232-20.352 24.667429-2.925714 24.283429-0.731429 49.316571-1.462857 74.331429-1.462857 43.154286-28.342857 69.632-67.986286 68.900571-38.180571-0.731429-64-27.556571-65.097143-69.613714-0.713143-45.348571-0.347429-91.026286-0.347428-136.356572h2.907428zM513.243429 422.765714c-0.731429-1.828571-1.828571-3.986286-2.56-5.796571-14.518857 6.528-38.162286 9.782857-41.435429 19.931428-6.546286 20.662857-3.638857 45.348571-1.828571 67.821715 0.365714 4.717714 12.745143 11.245714 20.004571 12.324571 14.555429 2.194286 29.44 1.097143 44.361143 1.462857 17.097143 0.365714 30.537143-1.828571 32-24.32 3.638857-55.478857-0.365714-68.169143-26.185143-71.058285-7.990857-1.097143-16.347429-0.365714-24.356571-0.365715z" p-id="9663"></path></svg>