<svg viewBox="0 0 186 186" fill="none" xmlns="http://www.w3.org/2000/svg">
<g id="里程表">
<path d="M98.5567 13.0284C98.1429 12.9261 97.7486 12.7773 97.2808 12.7708C97.0157 12.7708 96.7851 12.8861 96.534 12.927C95.4952 12.8926 94.4843 12.7708 93.439 12.7708C45.7244 12.7708 6.90153 51.5936 6.90153 99.3082C6.90804 128.344 21.3584 155.296 45.5616 171.403C46.685 172.149 48.0589 172.419 49.3813 172.154C50.7037 171.888 51.8664 171.107 52.6138 169.984C54.1679 167.643 53.5438 164.48 51.2021 162.926C43.2311 157.622 36.3266 150.869 30.8472 143.018L37.9877 138.518C39.1287 137.798 39.937 136.654 40.2349 135.338C40.5328 134.022 40.2958 132.641 39.5761 131.5C39.2197 130.934 38.7551 130.444 38.209 130.058C37.6629 129.671 37.0459 129.397 36.3935 129.249C35.741 129.101 35.0659 129.084 34.4067 129.198C33.7475 129.311 33.1172 129.554 32.5519 129.912L25.6224 134.283C20.7018 124.746 17.8848 114.165 17.3287 103.17H26.0502C28.8598 103.17 31.1411 100.889 31.1411 98.0787C31.1411 95.2683 28.8607 92.9879 26.0502 92.9879H17.4096C18.3008 82.0601 21.5545 71.4562 26.9458 61.9092L33.5293 66.2123C34.3914 66.7759 35.3549 67.04 36.3053 67.04C37.1527 67.0406 37.9869 66.8299 38.7324 66.4271C39.4779 66.0242 40.1112 65.4418 40.575 64.7327C40.9411 64.1732 41.1933 63.547 41.3172 62.8899C41.441 62.2328 41.434 61.5577 41.2965 60.9033C41.1591 60.249 40.8939 59.6281 40.5162 59.0764C40.1385 58.5246 39.6557 58.0528 39.0953 57.6879L32.5593 53.4183C37.9077 46.3391 44.4233 40.2039 51.8689 35.3437L57.5093 44.1332C57.9693 44.8532 58.6037 45.4455 59.3537 45.8548C60.1037 46.2642 60.945 46.4775 61.7994 46.4749C62.7123 46.4731 63.6079 46.2258 64.3925 45.759C65.177 45.2922 65.8216 44.623 66.2587 43.8216C66.6958 43.0201 66.9093 42.1159 66.8769 41.2035C66.8446 40.2912 66.5674 39.4044 66.0746 38.6359L60.7876 30.3896C70.3647 25.8289 81.0067 23.1812 92.2672 23.0119L92.3081 29.1406C92.3169 30.4849 92.8572 31.7711 93.811 32.7184C94.7648 33.6658 96.0546 34.1973 97.3989 34.197H97.4333C98.7832 34.1874 100.074 33.6423 101.022 32.6815C101.97 31.7206 102.498 30.4226 102.49 29.0727L102.455 23.5346C112.175 24.6813 121.345 27.6201 129.597 32.0794L124.419 39.0433C124.02 39.5792 123.73 40.1886 123.566 40.8367C123.402 41.4847 123.368 42.1588 123.465 42.8201C123.562 43.4815 123.789 44.1172 124.132 44.6909C124.475 45.2645 124.928 45.7649 125.464 46.1633C126.339 46.8156 127.401 47.1679 128.492 47.1677C129.287 47.1699 130.072 46.9849 130.783 46.6277C131.494 46.2705 132.111 45.7512 132.585 45.1115L138.191 37.5711C144.474 42.1438 150.03 47.6402 154.67 53.874L148.84 57.6814C147.71 58.4198 146.92 59.5766 146.642 60.8975C146.365 62.2185 146.623 63.5955 147.36 64.7261C148.099 65.8563 149.256 66.6469 150.577 66.9244C151.898 67.2018 153.275 66.9434 154.406 66.2058L160.243 62.3909C165.347 71.5942 168.571 81.959 169.48 92.9814H161.016C159.666 92.9819 158.372 93.5184 157.417 94.473C156.463 95.4276 155.926 96.7222 155.926 98.0722C155.926 99.4222 156.463 100.717 157.417 101.671C158.372 102.626 159.666 103.163 161.016 103.163H169.561C169.005 114.172 166.182 124.746 161.268 134.276L154.338 129.912C153.773 129.554 153.143 129.311 152.483 129.198C151.824 129.084 151.149 129.101 150.497 129.249C149.844 129.397 149.227 129.671 148.681 130.058C148.135 130.444 147.67 130.934 147.314 131.5C146.595 132.642 146.359 134.022 146.657 135.338C146.954 136.653 147.762 137.797 148.902 138.518L156.036 143.018C150.462 151.002 143.418 157.85 135.281 163.196C134.721 163.563 134.239 164.036 133.863 164.589C133.487 165.142 133.223 165.764 133.087 166.419C132.95 167.074 132.945 167.749 133.07 168.406C133.195 169.063 133.448 169.689 133.815 170.249C134.279 170.954 134.912 171.534 135.656 171.934C136.4 172.335 137.232 172.544 138.077 172.543C139.066 172.542 140.034 172.252 140.86 171.708C165.355 155.635 179.981 128.574 179.981 99.3082C179.976 53.3169 143.889 15.7021 98.5567 13.0284Z" fill="#171717"/>
<path d="M132.636 65.1744C130.783 63.0633 127.565 62.8596 125.448 64.7131L102.208 85.1294C99.6495 83.541 96.6623 82.584 93.439 82.584C84.2217 82.584 76.7148 90.0844 76.7148 99.3082C76.7148 108.532 84.2143 116.032 93.439 116.032C102.663 116.032 110.163 108.532 110.163 99.3082C110.163 97.0139 109.695 94.8358 108.86 92.84L132.168 72.3559C132.672 71.9162 133.084 71.3812 133.381 70.7817C133.677 70.1821 133.852 69.5299 133.896 68.8624C133.939 68.195 133.85 67.5255 133.634 66.8926C133.418 66.2597 133.078 65.6757 132.636 65.1744ZM93.4464 105.851C89.8426 105.851 86.9038 102.912 86.9038 99.3082C86.9038 95.7044 89.8426 92.7656 93.4464 92.7656C97.0501 92.7656 99.9889 95.7044 99.9889 99.3082C99.9889 102.912 97.0501 105.851 93.4464 105.851Z" fill="#171717"/>
</g>
</svg>
