<svg viewBox="82 23 190 150" fill="none" xmlns="http://www.w3.org/2000/svg">
<g id="排量">
<path d="M145.523 42.5391H162.739C164.457 42.5391 165.863 43.9451 165.863 45.6637V51.0066C165.863 52.7252 167.269 54.1313 168.988 54.1313H179.393C181.111 54.1313 182.517 52.7252 182.517 51.0066V45.6637C182.517 43.9451 183.923 42.5391 185.642 42.5391H202.827C204.545 42.5391 205.951 41.133 205.951 39.4145V32.2906C205.951 30.5721 204.545 29.166 202.827 29.166H145.523C143.804 29.166 142.398 30.5721 142.398 32.2906V39.4145C142.398 41.133 143.804 42.5391 145.523 42.5391H145.523ZM261.504 84.5951H254.381C252.662 84.5951 251.256 86.0012 251.256 87.7197V90.7818C251.256 92.5004 249.85 93.9064 248.132 93.9064H241.258C239.539 93.9064 238.133 92.5004 238.133 90.7818V83.658C238.133 81.9395 236.727 80.5334 235.009 80.5334H222.854C221.136 80.5334 218.824 79.4711 217.668 78.19L207.575 66.6605C206.419 65.3795 204.107 64.3172 202.357 64.3172H144.054C142.336 64.3172 140.055 65.4107 138.961 66.7543L124.713 84.4391C123.62 85.7826 121.339 86.8762 119.62 86.8762H116.465C114.746 86.8762 113.34 88.2822 113.34 90.0008V104.905C113.34 106.623 111.934 108.029 110.215 108.029H103.998C102.279 108.029 100.873 106.623 100.873 104.905V87.7199C100.873 86.0014 99.467 84.5953 97.7484 84.5953H90.6246C88.9061 84.5953 87.5 86.0014 87.5 87.7199V144.992C87.5 146.711 88.9061 148.117 90.6246 148.117H97.7484C99.467 148.117 100.873 146.711 100.873 144.992V127.807C100.873 126.089 102.279 124.683 103.998 124.683H110.215C111.934 124.683 113.34 126.089 113.34 127.807V142.68C113.34 144.43 114.746 145.836 116.465 145.836H125.526C127.244 145.836 129.619 146.836 130.806 148.117L146.46 164.802C147.647 166.051 149.991 167.082 151.709 167.082H213.543C215.262 167.082 217.605 166.02 218.761 164.739L236.04 145.523C237.196 144.242 239.539 143.18 241.258 143.18H248.132C249.85 143.18 251.256 144.305 251.256 145.648C251.256 147.023 252.662 148.117 254.381 148.117H261.505C263.223 148.117 264.629 146.711 264.629 144.992V87.7197C264.629 86.0012 263.223 84.5951 261.505 84.5951H261.504ZM197.983 121.933L169.363 147.616C166.644 150.054 165.801 149.397 167.457 146.117L171.487 138.274C173.144 135.025 171.894 130.9 168.675 129.15L162.77 125.87C159.583 124.12 157.208 119.683 157.458 116.059L159.208 92.75C159.489 89.1256 162.708 86.1572 166.332 86.1572H189.141C192.797 86.1572 194.359 88.7506 192.609 91.9687L181.83 111.653C180.049 114.871 181.611 117.496 185.267 117.496H196.296C199.952 117.496 200.702 119.496 197.983 121.933L197.983 121.933Z" fill="#171717"/>
</g>
</svg>
