<svg viewBox="0 0 148 148" fill="none" xmlns="http://www.w3.org/2000/svg">
<g id="汽油" clip-path="url(#clip0_0_4)">
<path d="M73.9928 27.7473V48.5578C73.9928 49.8295 72.9523 50.87 71.6805 50.87H36.9964C35.7246 50.87 34.6841 49.8295 34.6841 48.5578V27.7473C34.6841 26.4755 35.7246 25.435 36.9964 25.435H71.6805C72.9523 25.435 73.9928 26.4755 73.9928 27.7473ZM34.6841 16.1859C29.5827 16.1859 25.435 20.3336 25.435 25.435V50.87C25.435 55.9715 29.5827 60.1191 34.6841 60.1191H73.9928C79.0942 60.1191 83.2419 55.9715 83.2419 50.87V25.435C83.2419 20.3336 79.0942 16.1859 73.9928 16.1859H34.6841Z" fill="#171717"/>
<path d="M86.3056 9.2491C88.0109 9.2491 89.3839 10.6365 89.3839 12.3273L89.3983 131.034C89.3983 134.054 90.6412 136.785 92.6499 138.751H15.3188C17.2698 136.814 18.4837 134.126 18.4837 131.164V12.3273C18.4837 10.622 19.8711 9.2491 21.562 9.2491H86.3056ZM137.523 25.8397C138.317 26.9091 138.736 28.1953 138.736 29.5393V33.8893L132.537 33.9037H129.776L133.563 29.9584L137.523 25.8397ZM121.64 0C119.704 0 117.767 0.737037 116.293 2.22556C113.33 5.18816 113.33 9.97168 116.293 12.9343L126.886 23.5563L119.053 31.7215C116.495 34.3517 116.495 38.5716 119.053 41.1874C120.296 42.5169 121.972 43.1673 123.634 43.1673H123.707L132.566 43.1528V112.449C132.566 115.021 130.485 117.174 127.927 117.174H127.84C125.325 117.131 123.302 115.079 123.302 112.55V69.3682C123.302 58.2982 114.313 49.3237 103.257 49.3237C100.7 49.3237 98.6329 47.2571 98.6329 44.6992V12.3273C98.6329 5.52055 93.1124 0 86.3056 0H21.5764C14.7697 0 9.2491 5.52055 9.2491 12.3273V131.164C9.2491 131.944 8.61322 132.594 7.83283 132.594C3.68519 132.594 0.202324 135.817 0.0289034 139.965C-0.158969 144.373 3.3528 148 7.73167 148H100.121C104.356 148 107.896 144.618 107.94 140.384C107.983 136.077 104.529 132.594 100.237 132.594C99.3844 132.594 98.6763 131.901 98.6763 131.034V69.3971C98.6763 66.8392 100.743 64.7726 103.301 64.7726C105.859 64.7726 107.925 66.8392 107.925 69.3971V112.55C107.925 123.62 116.914 132.594 127.97 132.594C139.04 132.594 148.014 123.606 148.014 112.55V29.5393C148.014 25.1893 146.222 21.2729 143.361 18.4693L126.987 2.22556C125.499 0.737037 123.562 0 121.64 0Z" fill="#171717"/>
</g>
<defs>
<clipPath id="clip0_0_4">
<rect width="148" height="148" fill="white"/>
</clipPath>
</defs>
</svg>
