<svg viewBox="34 34 146 146" fill="none" xmlns="http://www.w3.org/2000/svg">
<g id="自动挡" clip-path="url(#clip0_0_4)">
<path opacity="0.01" d="M0 0H213V213H0V0Z" fill="#D8D8D8"/>
<path opacity="0.01" d="M35.5 35.5H177.5V177.5H35.5V35.5Z" fill="#D8D8D8"/>
<path d="M159.75 37.7188C163.272 37.7236 166.689 38.9256 169.438 41.1277C172.187 43.3298 174.106 46.401 174.88 49.8374C175.654 53.2739 175.237 56.8713 173.697 60.0394C172.158 63.2075 169.587 65.758 166.406 67.2725V106.5C166.406 108.265 165.705 109.958 164.457 111.207C163.208 112.455 161.515 113.156 159.75 113.156H113.156V145.727C115.664 146.92 117.806 148.763 119.359 151.066C120.912 153.368 121.819 156.045 121.986 158.817C122.152 161.589 121.571 164.355 120.305 166.826C119.038 169.298 117.131 171.384 114.784 172.868C112.436 174.351 109.734 175.178 106.958 175.261C104.182 175.345 101.435 174.682 99.0022 173.342C96.5697 172.003 94.5412 170.035 93.1282 167.644C91.7152 165.253 90.9694 162.527 90.9687 159.75C90.9687 153.555 94.6075 148.212 99.8437 145.727V113.156H59.9062V145.727C62.4143 146.92 64.5565 148.763 66.1095 151.066C67.6625 153.368 68.5694 156.045 68.7357 158.817C68.9019 161.589 68.3214 164.355 67.0547 166.826C65.788 169.298 63.8815 171.384 61.5339 172.868C59.1864 174.351 56.4838 175.178 53.7079 175.261C50.9321 175.345 48.1847 174.682 45.7522 173.342C43.3197 172.003 41.2912 170.035 39.8782 167.644C38.4652 165.253 37.7195 162.527 37.7187 159.75C37.7187 153.555 41.3575 148.212 46.5937 145.727V67.2725C43.3971 65.7702 40.8088 63.2221 39.2567 60.0494C37.7045 56.8766 37.2815 53.2692 38.0576 49.8235C38.8337 46.3778 40.7623 43.3 43.5248 41.099C46.2872 38.898 49.718 37.7055 53.25 37.7188C56.7725 37.7236 60.1887 38.9256 62.938 41.1277C65.6874 43.3298 67.6065 46.401 68.3805 49.8374C69.1544 53.2739 68.7373 56.8713 67.1974 60.0394C65.6576 63.2075 63.0866 65.758 59.9062 67.2725V99.8438H99.8437V67.2725C96.6471 65.7702 94.0588 63.2221 92.5066 60.0494C90.9545 56.8766 90.5315 53.2692 91.3076 49.8235C92.0837 46.3778 94.0123 43.3 96.7748 41.099C99.5372 38.898 102.968 37.7055 106.5 37.7188C110.022 37.7236 113.439 38.9256 116.188 41.1277C118.937 43.3298 120.856 46.401 121.63 49.8374C122.404 53.2739 121.987 56.8713 120.447 60.0394C118.908 63.2075 116.337 65.758 113.156 67.2725V99.8438H153.094V67.2725C149.897 65.7702 147.309 63.2221 145.757 60.0494C144.205 56.8766 143.782 53.2692 144.558 49.8235C145.334 46.3778 147.262 43.3 150.025 41.099C152.787 38.898 156.218 37.7055 159.75 37.7188ZM53.25 157.531C52.6615 157.531 52.0972 157.765 51.6811 158.181C51.265 158.597 51.0312 159.162 51.0312 159.75C51.0312 160.338 51.265 160.903 51.6811 161.319C52.0972 161.735 52.6615 161.969 53.25 161.969C53.8384 161.969 54.4028 161.735 54.8189 161.319C55.235 160.903 55.4687 160.338 55.4687 159.75C55.4687 159.162 55.235 158.597 54.8189 158.181C54.4028 157.765 53.8384 157.531 53.25 157.531ZM106.5 157.531C105.912 157.531 105.347 157.765 104.931 158.181C104.515 158.597 104.281 159.162 104.281 159.75C104.281 160.338 104.515 160.903 104.931 161.319C105.347 161.735 105.912 161.969 106.5 161.969C107.088 161.969 107.653 161.735 108.069 161.319C108.485 160.903 108.719 160.338 108.719 159.75C108.719 159.162 108.485 158.597 108.069 158.181C107.653 157.765 107.088 157.531 106.5 157.531ZM53.25 51.0313C52.9586 51.0313 52.6701 51.0886 52.4009 51.2001C52.1317 51.3116 51.8871 51.4751 51.6811 51.6811C51.4751 51.8871 51.3116 52.1317 51.2001 52.4009C51.0886 52.6701 51.0312 52.9586 51.0312 53.25C51.0312 53.5414 51.0886 53.8299 51.2001 54.0991C51.3116 54.3683 51.4751 54.6129 51.6811 54.8189C51.8871 55.0249 52.1317 55.1884 52.4009 55.2999C52.6701 55.4114 52.9586 55.4688 53.25 55.4688C53.8384 55.4688 54.4028 55.235 54.8189 54.8189C55.235 54.4028 55.4687 53.8385 55.4687 53.25C55.4687 52.6616 55.235 52.0972 54.8189 51.6811C54.4028 51.265 53.8384 51.0313 53.25 51.0313ZM106.5 51.0313C106.209 51.0313 105.92 51.0886 105.651 51.2001C105.382 51.3116 105.137 51.4751 104.931 51.6811C104.725 51.8871 104.562 52.1317 104.45 52.4009C104.339 52.6701 104.281 52.9586 104.281 53.25C104.281 53.5414 104.339 53.8299 104.45 54.0991C104.562 54.3683 104.725 54.6129 104.931 54.8189C105.137 55.0249 105.382 55.1884 105.651 55.2999C105.92 55.4114 106.209 55.4688 106.5 55.4688C107.088 55.4688 107.653 55.235 108.069 54.8189C108.485 54.4028 108.719 53.8385 108.719 53.25C108.719 52.6616 108.485 52.0972 108.069 51.6811C107.653 51.265 107.088 51.0313 106.5 51.0313ZM159.75 51.0313C159.459 51.0313 159.17 51.0886 158.901 51.2001C158.632 51.3116 158.387 51.4751 158.181 51.6811C157.975 51.8871 157.812 52.1317 157.7 52.4009C157.589 52.6701 157.531 52.9586 157.531 53.25C157.531 53.5414 157.589 53.8299 157.7 54.0991C157.812 54.3683 157.975 54.6129 158.181 54.8189C158.387 55.0249 158.632 55.1884 158.901 55.2999C159.17 55.4114 159.459 55.4688 159.75 55.4688C160.338 55.4688 160.903 55.235 161.319 54.8189C161.735 54.4028 161.969 53.8385 161.969 53.25C161.969 52.6616 161.735 52.0972 161.319 51.6811C160.903 51.265 160.338 51.0313 159.75 51.0313Z" fill="#171717"/>
<path d="M159.75 144.219C163.869 144.219 167.82 145.855 170.732 148.768C173.645 151.68 175.281 155.631 175.281 159.75C175.281 163.869 173.645 167.82 170.732 170.732C167.82 173.645 163.869 175.281 159.75 175.281C155.631 175.281 151.68 173.645 148.768 170.732C145.855 167.82 144.219 163.869 144.219 159.75C144.219 155.631 145.855 151.68 148.768 148.768C151.68 145.855 155.631 144.219 159.75 144.219ZM159.75 157.531C159.162 157.531 158.597 157.765 158.181 158.181C157.765 158.597 157.531 159.162 157.531 159.75C157.531 160.338 157.765 160.903 158.181 161.319C158.597 161.735 159.162 161.969 159.75 161.969C160.338 161.969 160.903 161.735 161.319 161.319C161.735 160.903 161.969 160.338 161.969 159.75C161.969 159.162 161.735 158.597 161.319 158.181C160.903 157.765 160.338 157.531 159.75 157.531Z" fill="#FF7D03"/>
</g>
<defs>
<clipPath id="clip0_0_4">
<rect width="213" height="213" fill="white"/>
</clipPath>
</defs>
</svg>
